<?xml version="1.0" encoding="UTF-8"?>
<!-- Generator: visioncortex VTracer 0.6.3 -->
<svg version="1.1" xmlns="http://www.w3.org/2000/svg" width="1280" height="818">
<path d="M0 0 C1.92 -0 1.92 -0 3.87 -0.01 C5.25 -0 6.63 0 8.01 0.01 C9.43 0.01 10.86 0.01 12.28 0.01 C15.26 0.02 18.23 0.02 21.2 0.04 C25.02 0.05 28.84 0.06 32.65 0.06 C35.59 0.06 38.52 0.06 41.46 0.07 C42.87 0.07 44.28 0.08 45.68 0.08 C47.65 0.08 49.61 0.09 51.57 0.1 C53.24 0.1 53.24 0.1 54.95 0.11 C57.46 0.24 57.46 0.24 58.46 1.24 C60.92 1.43 63.37 1.57 65.83 1.68 C71.45 1.98 76.85 2.52 82.37 3.65 C84.85 4.13 87.3 4.53 89.8 4.9 C99.01 6.26 107.95 7.95 116.94 10.38 C120.43 11.3 120.43 11.3 123.92 11.71 C127.92 12.31 131.56 13.41 135.4 14.68 C139.45 16 143.48 17.28 147.62 18.29 C155.87 20.33 163.82 23.34 171.77 26.31 C172.43 26.55 173.09 26.8 173.76 27.05 C182.52 30.35 190.99 34.28 199.46 38.24 C200.68 38.82 200.68 38.82 201.93 39.4 C232.21 53.61 262.41 70.79 287.46 93.24 C287.46 93.9 287.46 94.56 287.46 95.24 C288 95.3 288.54 95.36 289.1 95.42 C292.49 96.6 294.68 98.93 297.21 101.37 C298.29 102.38 299.37 103.4 300.44 104.41 C300.96 104.9 301.48 105.39 302.02 105.9 C303.79 107.55 305.62 109.12 307.46 110.68 C311.09 113.84 314.53 117.18 317.96 120.56 C318.5 121.08 319.04 121.61 319.6 122.16 C320.93 123.48 322.2 124.86 323.46 126.24 C323.46 126.9 323.46 127.56 323.46 128.24 C324.45 128.57 325.44 128.9 326.46 129.24 C327.93 130.7 327.93 130.7 329.52 132.62 C332.29 135.9 335.15 139.05 338.08 142.18 C344.16 148.84 349.53 156 354.93 163.21 C356.34 165.08 357.76 166.96 359.18 168.82 C362.5 173.21 365.65 177.52 368.46 182.24 C369.61 183.92 370.78 185.59 371.96 187.24 C378.46 196.37 378.46 196.37 378.46 200.24 C379.12 200.24 379.78 200.24 380.46 200.24 C381.28 201.79 381.28 201.79 382.11 203.36 C382.47 204.04 382.83 204.72 383.2 205.42 C384.01 206.95 384.82 208.48 385.63 210.01 C387.65 213.85 389.69 217.68 391.78 221.49 C397.4 231.8 402.08 242.35 406.46 253.24 C406.86 254.22 407.26 255.2 407.67 256.21 C408.62 258.55 409.54 260.89 410.46 263.24 C411.07 264.81 411.07 264.81 411.7 266.41 C418.86 284.8 424.75 303.85 428.46 323.24 C428.73 324.5 428.99 325.77 429.26 327.07 C430.61 333.49 431.79 339.83 432.25 346.39 C432.36 348.33 432.36 348.33 433.46 350.24 C437.16 368.29 436.93 386.8 436.85 405.12 C436.83 409.03 436.84 412.93 436.86 416.83 C437.01 456.61 437.01 456.61 431.46 475.24 C431.26 477.3 431.11 479.36 431.02 481.43 C430.59 487.99 429.19 493.92 427.46 500.24 C427 502.12 426.53 503.99 426.07 505.87 C420.59 528.25 413.89 549.8 404.51 570.88 C403.51 573.14 402.52 575.4 401.53 577.67 C397.86 586.09 394.01 594.25 389.46 602.24 C388.66 603.69 387.87 605.14 387.08 606.59 C379.28 620.84 379.28 620.84 375.16 626.76 C372.11 631.21 369.24 635.77 366.33 640.31 C361.27 648.16 361.27 648.16 359.46 650.24 C358.8 650.24 358.14 650.24 357.46 650.24 C357.36 650.82 357.25 651.4 357.15 651.99 C356.34 654.63 355.19 656.16 353.46 658.31 C352.83 659.09 352.21 659.87 351.56 660.67 C350.52 661.94 350.52 661.94 349.46 663.24 C348.7 664.17 347.95 665.1 347.17 666.06 C344.94 668.8 342.7 671.52 340.46 674.24 C339.71 675.16 339.71 675.16 338.95 676.1 C336.29 679.35 333.44 682.29 330.46 685.24 C329.1 686.61 327.74 687.97 326.39 689.34 C324.31 691.43 322.24 693.51 320.16 695.6 C319.07 696.69 317.98 697.79 316.89 698.89 C315.3 700.49 313.71 702.08 312.12 703.68 C311.4 704.41 311.4 704.41 310.67 705.15 C307.42 708.4 304.01 711.32 300.46 714.24 C299.63 715.07 298.81 715.89 297.96 716.74 C295.24 719.46 292.5 721.88 289.46 724.24 C288.8 724.24 288.14 724.24 287.46 724.24 C287.25 724.81 287.04 725.38 286.82 725.96 C284.97 729.06 282.62 730.63 279.71 732.74 C278.68 733.5 277.66 734.25 276.6 735.02 C267.8 741.24 267.8 741.24 265.46 741.24 C265.23 741.84 265.01 742.44 264.77 743.06 C263.07 745.89 261.34 746.59 258.46 748.24 C257.2 749.02 255.94 749.8 254.68 750.58 C254 751.01 253.32 751.43 252.63 751.87 C251.93 752.3 251.24 752.73 250.52 753.18 C249.49 753.83 249.49 753.83 248.43 754.48 C245.35 756.41 242.31 758.35 239.3 760.38 C236.57 762.17 233.84 763.63 230.9 765.06 C226.62 767.16 222.4 769.33 218.21 771.62 C201.51 780.66 184.54 787.96 166.7 794.43 C164.76 795.13 162.83 795.86 160.9 796.59 C114.76 813.82 65.36 818.92 16.46 818.24 C15.49 818.24 14.52 818.23 13.53 818.22 C-12.05 817.97 -37.46 813.96 -62.25 807.78 C-64.62 807.22 -66.99 806.76 -69.39 806.31 C-75.19 805.17 -80.81 803.54 -86.48 801.87 C-87.49 801.58 -88.49 801.29 -89.53 800.99 C-96.31 799 -102.93 796.72 -109.54 794.24 C-110.39 793.93 -111.25 793.61 -112.13 793.29 C-122.88 789.33 -133.41 785.14 -143.71 780.12 C-145.59 779.22 -147.49 778.37 -149.4 777.52 C-164.9 770.58 -179.75 761.98 -193.78 752.41 C-195.54 751.19 -195.54 751.19 -197.54 750.24 C-197.54 749.58 -197.54 748.92 -197.54 748.24 C-198.08 748.16 -198.61 748.08 -199.17 747.99 C-202.41 746.97 -204.83 745.28 -207.54 743.24 C-207.54 742.58 -207.54 741.92 -207.54 741.24 C-208.11 741.14 -208.69 741.03 -209.28 740.93 C-211.9 740.13 -213.56 738.97 -215.73 737.31 C-216.42 736.78 -217.12 736.26 -217.83 735.72 C-219.54 734.24 -219.54 734.24 -220.54 732.24 C-221.87 731.57 -223.21 730.91 -224.54 730.24 C-226.32 728.95 -228.07 727.61 -229.79 726.24 C-230.68 725.54 -231.57 724.84 -232.49 724.12 C-233.17 723.5 -233.84 722.88 -234.54 722.24 C-234.54 721.58 -234.54 720.92 -234.54 720.24 C-235.28 720 -236.03 719.75 -236.79 719.49 C-239.77 718.14 -241.44 716.73 -243.54 714.24 C-243.54 713.58 -243.54 712.92 -243.54 712.24 C-244.6 711.91 -244.6 711.91 -245.68 711.57 C-249.18 709.94 -251.57 707.65 -254.24 704.94 C-254.77 704.42 -255.29 703.9 -255.83 703.36 C-256.93 702.26 -258.02 701.16 -259.12 700.06 C-260.79 698.37 -262.48 696.7 -264.17 695.03 C-265.23 693.96 -266.3 692.89 -267.37 691.81 C-267.87 691.32 -268.38 690.82 -268.9 690.3 C-271.45 687.7 -272.92 685.85 -273.54 682.24 C-275.42 681.16 -275.42 681.16 -277.54 680.24 C-279.15 678.68 -279.15 678.68 -280.73 676.81 C-281.33 676.1 -281.93 675.38 -282.55 674.65 C-283.21 673.86 -283.86 673.06 -284.54 672.24 C-285.65 670.91 -285.65 670.91 -286.78 669.55 C-291.19 664.22 -295.45 658.81 -299.54 653.24 C-300.09 652.57 -300.64 651.9 -301.2 651.21 C-302.54 649.24 -302.54 649.24 -302.54 646.24 C-303.53 645.91 -304.52 645.58 -305.54 645.24 C-307.08 643.1 -308.48 640.99 -309.85 638.74 C-310.65 637.47 -311.45 636.19 -312.24 634.91 C-312.83 633.98 -312.83 633.98 -313.42 633.02 C-315.37 629.92 -317.46 626.92 -319.54 623.91 C-320.54 622.24 -320.54 622.24 -320.54 620.24 C-321.2 619.91 -321.86 619.58 -322.54 619.24 C-323.47 617.64 -323.47 617.64 -324.42 615.62 C-327.75 608.44 -327.75 608.44 -332.54 602.24 C-333.28 600.57 -334.01 598.89 -334.7 597.2 C-335.49 595.37 -336.39 593.58 -337.29 591.81 C-342.17 582.18 -346.24 572.09 -350.35 562.11 C-351.18 560.12 -352.01 558.14 -352.85 556.15 C-362.54 533.29 -362.54 533.29 -362.54 524.24 C-363.2 523.91 -363.86 523.58 -364.54 523.24 C-365.08 521.03 -365.52 518.8 -365.92 516.56 C-366.84 511.49 -367.96 506.61 -369.48 501.68 C-371.31 495.49 -372.58 489.28 -373.73 482.93 C-373.89 482.01 -374.06 481.09 -374.23 480.15 C-375.08 475.33 -375.78 470.52 -376.28 465.66 C-376.58 462.83 -376.94 460 -377.29 457.18 C-377.43 456.11 -377.56 455.05 -377.69 453.96 C-377.97 451.77 -378.24 449.58 -378.52 447.39 C-379.08 442.86 -379.63 438.41 -379.57 433.84 C-379.43 430.37 -379.43 430.37 -380.03 427.52 C-380.62 423.75 -380.68 420.06 -380.67 416.25 C-380.67 415.51 -380.68 414.77 -380.68 414 C-380.68 412.44 -380.67 410.88 -380.67 409.32 C-380.67 406.92 -380.67 404.52 -380.68 402.12 C-380.68 400.6 -380.68 399.09 -380.67 397.57 C-380.68 396.49 -380.68 396.49 -380.68 395.39 C-380.66 390.36 -380.66 390.36 -379.54 389.24 C-379.54 387.24 -379.55 385.24 -379.57 383.24 C-379.49 374.24 -378.84 365.15 -377.54 356.24 C-376.88 356.24 -376.22 356.24 -375.54 356.24 C-375.73 355.11 -375.93 353.97 -376.13 352.81 C-376.72 348.06 -376.05 343.89 -375.1 339.24 C-374.88 338.08 -374.88 338.08 -374.66 336.9 C-374.29 335.01 -373.92 333.13 -373.54 331.24 C-372.88 331.24 -372.22 331.24 -371.54 331.24 C-371.75 330.05 -371.95 328.85 -372.17 327.62 C-372.68 323.69 -372.11 320.93 -370.54 317.24 C-369.88 317.24 -369.22 317.24 -368.54 317.24 C-368.73 316.68 -368.92 316.12 -369.12 315.54 C-369.63 312.75 -369.14 311.23 -368.23 308.56 C-367.16 305.25 -366.23 302.02 -365.54 298.62 C-364.77 294.96 -363.65 291.61 -362.22 288.16 C-361.47 286.2 -361.47 286.2 -361.07 283.87 C-360.49 280.97 -359.62 278.29 -358.67 275.49 C-357.15 271.04 -355.67 266.57 -354.25 262.08 C-353.54 260.24 -353.54 260.24 -351.54 257.24 C-350.84 255.59 -350.18 253.92 -349.54 252.24 C-349.2 251.39 -348.86 250.55 -348.51 249.67 C-348.17 248.83 -347.83 247.99 -347.48 247.12 C-347.14 246.27 -346.79 245.42 -346.44 244.55 C-345.76 242.8 -345.13 241.03 -344.54 239.24 C-343.56 237.23 -342.56 235.23 -341.54 233.24 C-340.87 231.91 -340.21 230.58 -339.54 229.24 C-337.04 224.24 -337.04 224.24 -334.54 219.24 C-334.08 218.32 -334.08 218.32 -333.62 217.37 C-331.59 213.37 -329.33 209.51 -327.1 205.62 C-326.37 204.31 -326.37 204.31 -325.62 202.98 C-325.14 202.14 -324.66 201.31 -324.17 200.45 C-323.52 199.31 -323.52 199.31 -322.86 198.15 C-321.54 196.24 -321.54 196.24 -318.54 194.24 C-318.19 192.58 -317.86 190.91 -317.54 189.24 C-316.12 186.88 -316.12 186.88 -314.35 184.49 C-311.34 180.37 -308.53 176.18 -305.8 171.86 C-305.39 171.33 -304.97 170.79 -304.54 170.24 C-303.88 170.24 -303.22 170.24 -302.54 170.24 C-302.28 169.52 -302.03 168.81 -301.76 168.07 C-297.65 158.57 -289.48 149.78 -281.97 142.77 C-280.44 141.27 -280.44 141.27 -279.45 139.16 C-276.67 134.92 -273.14 131.56 -269.55 127.99 C-268.77 127.2 -267.98 126.42 -267.18 125.61 C-265.52 123.95 -263.87 122.3 -262.21 120.65 C-259.67 118.13 -257.15 115.59 -254.63 113.06 C-253.02 111.45 -251.41 109.84 -249.8 108.24 C-249.05 107.48 -248.29 106.72 -247.52 105.94 C-244.06 102.51 -240.9 99.52 -236.54 97.24 C-235.82 96.69 -235.1 96.13 -234.35 95.56 C-232.54 94.24 -232.54 94.24 -230.54 94.24 C-229.88 92.59 -229.22 90.94 -228.54 89.24 C-227.22 89.24 -225.9 89.24 -224.54 89.24 C-224.21 88.25 -223.88 87.26 -223.54 86.24 C-221.59 84.58 -219.67 83.06 -217.6 81.56 C-217.05 81.14 -216.5 80.72 -215.93 80.3 C-211.81 77.24 -211.81 77.24 -209.54 77.24 C-209.33 76.64 -209.13 76.05 -208.92 75.43 C-207 72.38 -204.8 71.78 -201.54 70.24 C-197.74 67.86 -194.02 65.37 -190.45 62.66 C-187.44 60.43 -184.2 58.54 -180.48 57.87 C-177.43 56.88 -175.74 54.5 -173.54 52.24 C-172.55 51.91 -171.56 51.58 -170.54 51.24 C-169.02 50.47 -169.02 50.47 -167.48 49.68 C-164.54 48.24 -164.54 48.24 -162.54 48.24 C-162.54 47.58 -162.54 46.92 -162.54 46.24 C-161.65 45.97 -160.77 45.71 -159.85 45.43 C-156.58 44.4 -156.58 44.4 -154.1 42.68 C-150.94 40.9 -148.13 40.59 -144.54 40.24 C-144.54 39.58 -144.54 38.92 -144.54 38.24 C-143.24 37.65 -143.24 37.65 -141.91 37.04 C-140.76 36.51 -139.6 35.98 -138.42 35.43 C-137.28 34.91 -136.14 34.39 -134.97 33.85 C-132.74 32.8 -130.53 31.71 -128.35 30.56 C-124.92 28.95 -122.29 29.02 -118.54 29.24 C-118.54 28.58 -118.54 27.92 -118.54 27.24 C-115.23 25.51 -112.21 23.98 -108.54 23.24 C-105.76 22.6 -103.14 21.77 -100.48 20.74 C-96.67 19.28 -93.47 18.11 -89.35 18.18 C-87.47 18.21 -87.47 18.21 -85.54 18.24 C-85.54 17.58 -85.54 16.92 -85.54 16.24 C-81.2 14.65 -77.11 13.9 -72.54 13.24 C-70.54 12.59 -68.54 11.92 -66.54 11.24 C-64.27 10.71 -61.99 10.23 -59.71 9.75 C-57.34 9.24 -57.34 9.24 -54.35 8.12 C-51.28 7.16 -48.74 7.17 -45.54 7.24 C-44.88 6.91 -44.22 6.58 -43.54 6.24 C-41.66 6.01 -39.78 5.78 -37.9 5.56 C-34.54 5.11 -31.24 4.38 -27.93 3.65 C-25.43 3.22 -23.08 3.22 -20.54 3.24 C-19.46 2.96 -19.46 2.96 -18.35 2.68 C-16.54 2.24 -16.54 2.24 -14.54 3.24 C-14.21 2.58 -13.88 1.92 -13.54 1.24 C-13.21 1.57 -12.88 1.9 -12.54 2.24 C-11.69 1.92 -10.83 1.59 -9.95 1.26 C-6.43 0.21 -3.66 -0 0 0 Z M-205.54 73.24 C-205.87 73.9 -206.2 74.56 -206.54 75.24 C-205.55 74.91 -204.56 74.58 -203.54 74.24 C-204.2 73.91 -204.86 73.58 -205.54 73.24 Z M-294.54 158.24 C-293.54 160.24 -293.54 160.24 -293.54 160.24 Z M173.68 169.74 C168.28 170.96 162.87 172.09 157.46 173.24 C157.46 173.9 157.46 174.56 157.46 175.24 C158.45 175.24 159.44 175.24 160.46 175.24 C160.73 175.94 161 176.65 161.27 177.37 C162.53 180.41 163.96 183.32 165.46 186.24 C166.12 186.24 166.78 186.24 167.46 186.24 C167.58 187.36 167.58 187.36 167.71 188.49 C168.63 191.86 169.97 192.82 172.46 195.24 C174.31 197.8 176.11 200.39 177.46 203.24 C177.13 203.9 176.8 204.56 176.46 205.24 C177.94 205.74 177.94 205.74 179.46 206.24 C180.99 208.71 180.99 208.71 182.52 211.74 C184.26 215.7 184.26 215.7 187.46 218.24 C188.39 219.9 189.26 221.59 190.08 223.31 C190.53 224.22 190.98 225.14 191.44 226.09 C191.77 226.8 192.11 227.51 192.46 228.24 C193.12 228.24 193.78 228.24 194.46 228.24 C194.71 228.92 194.95 229.6 195.21 230.31 C196.7 233.81 198.53 236.96 200.46 240.24 C201.12 240.24 201.78 240.24 202.46 240.24 C202.46 241.23 202.46 242.22 202.46 243.24 C204.36 243.1 206.25 242.95 208.15 242.81 C209.2 242.72 210.26 242.64 211.35 242.56 C215.54 242.13 219.52 241.26 223.58 240.18 C227.46 239.24 227.46 239.24 230.46 239.24 C230.46 238.58 230.46 237.92 230.46 237.24 C232.44 237.74 232.44 237.74 234.46 238.24 C234.46 237.58 234.46 236.92 234.46 236.24 C235.36 236.3 235.36 236.3 236.29 236.35 C241.38 236.59 241.38 236.59 246.02 234.74 C246.5 234.25 246.97 233.75 247.46 233.24 C246.8 231.26 246.14 229.28 245.46 227.24 C244.8 227.24 244.14 227.24 243.46 227.24 C243.1 226.48 243.1 226.48 242.74 225.7 C240.63 221.65 238.2 217.8 235.82 213.91 C234.03 210.94 232.34 208.01 230.8 204.89 C229.36 202.05 228.31 200.67 225.46 199.24 C225.17 198.34 224.88 197.43 224.58 196.49 C223.36 192.95 221.81 191.14 219.46 188.24 C217.97 186.01 216.52 183.76 215.08 181.49 C214.29 180.25 213.5 179.02 212.71 177.78 C212.33 177.18 211.95 176.58 211.55 175.96 C210.05 173.61 208.55 171.26 207.02 168.93 C206.57 168.23 206.12 167.54 205.65 166.82 C200.85 160.48 180.7 168.13 173.68 169.74 Z M112.09 182.27 C111.21 182.48 110.33 182.7 109.43 182.92 C108.49 183.15 107.55 183.38 106.58 183.62 C99.74 185.28 92.95 186.78 85.98 187.85 C83.42 188.25 80.88 188.68 78.33 189.18 C77.63 189.31 76.93 189.45 76.2 189.58 C74.07 190.2 74.07 190.2 72.46 193.24 C73.08 193.99 73.7 194.73 74.33 195.49 C76.09 197.77 77.19 199.71 78.46 202.24 C79.08 202.99 79.7 203.73 80.33 204.49 C82.58 207.39 84.02 210.25 85.53 213.57 C86.36 215.43 86.36 215.43 88.46 216.24 C89.15 217.96 89.85 219.68 90.53 221.41 C91.5 223.55 91.5 223.55 94.08 225.87 C96.69 228.48 96.97 229.7 97.46 233.24 C98.12 233.57 98.78 233.9 99.46 234.24 C99.6 234.9 99.75 235.56 99.9 236.24 C100.08 236.9 100.27 237.56 100.46 238.24 C101.94 238.74 101.94 238.74 103.46 239.24 C103.46 240.23 103.46 241.22 103.46 242.24 C104.45 242.24 105.44 242.24 106.46 242.24 C106.77 243.19 107.08 244.14 107.4 245.12 C108.33 248.1 108.33 248.1 109.46 250.24 C110.12 250.24 110.78 250.24 111.46 250.24 C111.46 251.23 111.46 252.22 111.46 253.24 C112.12 253.24 112.78 253.24 113.46 253.24 C113.73 254.01 114 254.77 114.27 255.56 C115.71 258.97 115.71 258.97 118.46 261.24 C123.43 261.04 127.74 259.5 132.39 257.87 C134.82 257.13 136.93 257.1 139.46 257.24 C140.8 256.94 142.13 256.6 143.46 256.24 C144.83 255.92 146.2 255.59 147.57 255.27 C148.32 255.09 149.08 254.92 149.85 254.73 C150.63 254.55 151.41 254.37 152.21 254.18 C153 253.99 153.8 253.81 154.61 253.62 C156.56 253.16 158.51 252.7 160.46 252.24 C160.46 248.6 159.4 246.92 157.65 243.74 C157.13 242.78 156.6 241.82 156.07 240.84 C154.65 238.55 153.35 237.1 151.46 235.24 C150.21 233.44 149.01 231.6 147.83 229.74 C147.22 228.78 146.61 227.82 145.98 226.84 C144.46 224.24 144.46 224.24 143.46 221.24 C142.8 221.24 142.14 221.24 141.46 221.24 C141.2 220.53 140.95 219.82 140.68 219.09 C139.36 216.02 137.74 213.41 135.9 210.62 C134.02 207.77 132.54 205.48 131.46 202.24 C130.8 202.24 130.14 202.24 129.46 202.24 C129.07 201.16 129.07 201.16 128.68 200.05 C127.4 197.12 125.87 194.87 123.96 192.31 C121.38 188.71 119.49 185.61 118.46 181.24 C116.17 181.24 114.31 181.72 112.09 182.27 Z M26.46 197.24 C30.46 198.24 30.46 198.24 30.46 198.24 Z M22.46 198.24 C26.46 199.24 26.46 199.24 26.46 199.24 Z M16.46 199.24 C16.46 199.57 16.46 199.9 16.46 200.24 C18.44 200.24 20.42 200.24 22.46 200.24 C22.46 199.91 22.46 199.58 22.46 199.24 C20.48 199.24 18.5 199.24 16.46 199.24 Z M10.46 200.24 C10.46 200.57 10.46 200.9 10.46 201.24 C12.44 201.24 14.42 201.24 16.46 201.24 C16.46 200.91 16.46 200.58 16.46 200.24 C14.48 200.24 12.5 200.24 10.46 200.24 Z M24.39 200.2 C23.36 200.4 22.32 200.61 21.25 200.82 C7.86 203.51 7.86 203.51 -5.48 206.43 C-6.52 206.66 -6.52 206.66 -7.59 206.9 C-11.46 207.8 -11.46 207.8 -14.54 210.24 C-13.88 210.24 -13.22 210.24 -12.54 210.24 C-11.47 212.9 -10.45 215.53 -9.54 218.24 C-8.88 218.9 -8.22 219.56 -7.54 220.24 C-4.05 224.45 -1.11 228.87 1.58 233.62 C5.14 239.86 9.09 245.8 13.11 251.75 C22.4 265.5 22.4 265.5 25.46 273.24 C26.12 273.24 26.78 273.24 27.46 273.24 C28.02 274.07 28.57 274.89 29.15 275.74 C31.32 278.66 31.32 278.66 35.21 278.56 C36.28 278.45 37.35 278.35 38.46 278.24 C38.46 277.58 38.46 276.92 38.46 276.24 C39.06 276.45 39.66 276.66 40.27 276.87 C42.74 277.55 42.74 277.55 45.46 275.24 C47.79 275.2 50.13 275.2 52.46 275.24 C54.56 274.84 54.56 274.84 56.46 274.24 C57.56 274.03 57.56 274.03 58.68 273.81 C61.74 273.19 64.75 272.44 67.77 271.68 C68.84 271.41 69.91 271.14 71.01 270.86 C71.82 270.66 72.63 270.45 73.46 270.24 C73.79 268.59 74.12 266.94 74.46 265.24 C73.8 265.24 73.14 265.24 72.46 265.24 C72.46 264.25 72.46 263.26 72.46 262.24 C71.8 262.24 71.14 262.24 70.46 262.24 C70.46 261.25 70.46 260.26 70.46 259.24 C69.8 259.24 69.14 259.24 68.46 259.24 C68.46 258.25 68.46 257.26 68.46 256.24 C67.8 256.24 67.14 256.24 66.46 256.24 C66.23 255.58 66.01 254.92 65.77 254.24 C64.33 250.95 62.54 248.11 60.58 245.11 C59.46 243.24 59.46 243.24 58.46 240.24 C57.99 239.77 57.51 239.29 57.02 238.81 C54.8 236.58 53.81 234.02 52.52 231.18 C51.54 229.18 51.54 229.18 49.9 227.68 C48.46 226.24 48.46 226.24 47.46 223.24 C46.8 223.24 46.14 223.24 45.46 223.24 C45.19 222.52 44.92 221.8 44.64 221.05 C42.73 216.5 40.06 212.43 37.46 208.24 C37.06 207.59 36.66 206.94 36.25 206.26 C35.38 204.88 34.43 203.56 33.46 202.24 C32.8 202.24 32.14 202.24 31.46 202.24 C31.46 201.25 31.46 200.26 31.46 199.24 C29 199.24 26.81 199.72 24.39 200.2 Z M4.46 201.24 C4.46 201.57 4.46 201.9 4.46 202.24 C6.44 202.24 8.42 202.24 10.46 202.24 C10.46 201.91 10.46 201.58 10.46 201.24 C8.48 201.24 6.5 201.24 4.46 201.24 Z M-329.54 211.24 C-328.54 213.24 -328.54 213.24 -328.54 213.24 Z M-13.54 212.24 C-12.54 214.24 -12.54 214.24 -12.54 214.24 Z M-68.54 216.24 C-68.54 216.57 -68.54 216.9 -68.54 217.24 C-65.57 217.24 -62.6 217.24 -59.54 217.24 C-59.54 216.91 -59.54 216.58 -59.54 216.24 C-62.51 216.24 -65.48 216.24 -68.54 216.24 Z M-73.54 217.24 C-71.56 218.23 -71.56 218.23 -69.54 219.24 C-69.21 218.58 -68.88 217.92 -68.54 217.24 C-70.19 217.24 -71.84 217.24 -73.54 217.24 Z M-77.54 218.24 C-73.54 219.24 -73.54 219.24 -73.54 219.24 Z M-62.75 218.23 C-63.8 218.44 -64.86 218.65 -65.95 218.87 C-67.07 219.1 -68.19 219.32 -69.35 219.56 C-71.06 219.9 -71.06 219.9 -72.8 220.24 C-79.57 221.61 -86.3 223.05 -92.99 224.76 C-95.88 225.31 -98.6 225.32 -101.54 225.24 C-100.76 226.89 -99.96 228.54 -99.17 230.18 C-98.5 231.56 -98.5 231.56 -97.83 232.96 C-96.75 235.37 -96.75 235.37 -94.54 236.24 C-93.84 237.56 -93.18 238.9 -92.54 240.24 C-88.4 247.27 -84.04 254.09 -79.31 260.74 C-75.51 266.12 -71.91 271.66 -68.28 277.16 C-66.95 279.17 -65.62 281.17 -64.29 283.18 C-63.88 283.81 -63.47 284.43 -63.04 285.08 C-58.97 292 -58.97 292 -52.6 296.12 C-46.89 296.35 -41.6 294.44 -36.16 292.86 C-33.54 292.24 -33.54 292.24 -29.54 292.24 C-29.54 291.58 -29.54 290.92 -29.54 290.24 C-28.85 290.44 -28.15 290.63 -27.43 290.83 C-23.97 291.32 -21.59 290.73 -18.23 289.81 C-17.16 289.52 -16.09 289.23 -14.99 288.93 C-14.18 288.71 -13.37 288.48 -12.54 288.24 C-11.57 286.13 -11.57 286.13 -11.54 283.24 C-12.83 280.38 -14.62 277.88 -16.42 275.31 C-17.44 273.78 -18.47 272.25 -19.5 270.72 C-20.02 269.96 -20.53 269.2 -21.07 268.42 C-23.11 265.39 -25.08 262.32 -27.04 259.24 C-29.49 255.42 -31.95 251.61 -34.44 247.81 C-34.93 247.05 -35.43 246.29 -35.94 245.51 C-36.9 244.04 -37.86 242.57 -38.82 241.1 C-41.33 237.25 -43.57 233.41 -45.54 229.24 C-46.2 229.24 -46.86 229.24 -47.54 229.24 C-47.75 228.56 -47.95 227.88 -48.17 227.18 C-49.97 223.33 -52.44 220.17 -55.54 217.24 C-58.04 217.24 -60.29 217.74 -62.75 218.23 Z M-81.54 219.24 C-77.54 220.24 -77.54 220.24 -77.54 220.24 Z M194.46 232.24 C195.46 234.24 195.46 234.24 195.46 234.24 Z M-102.54 233.24 C-103.53 233.74 -103.53 233.74 -104.54 234.24 C-103.92 237.57 -102.72 239.77 -100.73 242.49 C-100.23 243.2 -99.72 243.91 -99.21 244.63 C-97.45 246.71 -97.45 246.71 -93.54 246.24 C-93.99 241.37 -95.12 238.76 -98.54 235.24 C-100.54 233.82 -100.54 233.82 -102.54 233.24 Z M-152.29 236.43 C-152.96 236.56 -153.63 236.69 -154.33 236.82 C-164.76 238.83 -175.15 241.05 -185.54 243.24 C-185.23 244.01 -184.93 244.78 -184.61 245.57 C-183.59 248.13 -182.56 250.68 -181.54 253.24 C-180.88 253.24 -180.22 253.24 -179.54 253.24 C-179.28 253.95 -179.02 254.66 -178.76 255.4 C-177.45 258.45 -175.86 261.03 -174.04 263.81 C-172.02 266.89 -170.12 269.91 -168.54 273.24 C-168.21 273.9 -167.88 274.56 -167.54 275.24 C-166.88 275.24 -166.22 275.24 -165.54 275.24 C-165.54 277.22 -165.54 279.2 -165.54 281.24 C-164.88 281.57 -164.22 281.9 -163.54 282.24 C-162.55 281.75 -162.55 281.75 -161.54 281.24 C-161.21 282.89 -160.88 284.54 -160.54 286.24 C-159.88 286.24 -159.22 286.24 -158.54 286.24 C-158.27 287.21 -158 288.18 -157.73 289.18 C-157.34 290.19 -156.94 291.2 -156.54 292.24 C-155.06 292.74 -155.06 292.74 -153.54 293.24 C-152.92 295.12 -152.92 295.12 -152.54 297.24 C-151.76 300.32 -151.76 300.32 -149.54 302.24 C-149.54 303.23 -149.54 304.22 -149.54 305.24 C-148.55 304.91 -147.56 304.58 -146.54 304.24 C-146.54 305.56 -146.54 306.88 -146.54 308.24 C-145.88 308.24 -145.22 308.24 -144.54 308.24 C-144.21 309.56 -143.88 310.88 -143.54 312.24 C-135.86 313.47 -135.86 313.47 -128.29 312.31 C-124.67 311.28 -121.39 310.85 -117.65 310.59 C-115.3 310.2 -113.63 309.38 -111.54 308.24 C-109.01 307.46 -106.7 307.15 -104.04 306.87 C-100.49 306.23 -99.25 305.46 -96.54 303.24 C-96.86 302.75 -97.17 302.25 -97.5 301.74 C-102.8 293.4 -108.09 285.07 -113.1 276.56 C-117.03 269.92 -121.34 263.59 -125.76 257.26 C-129.02 252.58 -132.16 247.81 -135.28 243.03 C-137.97 238.74 -137.97 238.74 -141.54 235.24 C-145.36 235.24 -148.55 235.72 -152.29 236.43 Z M-2.54 241.24 C-3.43 245.31 -3.75 247.67 -2.29 251.62 C-0.75 254.52 -0.75 254.52 2.46 255.24 C5.67 258.53 7.24 260.22 8.21 264.74 C10.04 269.87 13.72 271.83 18.46 274.24 C20.64 274.91 20.64 274.91 22.46 275.24 C22.08 269.81 20.43 267.84 16.46 264.24 C13.2 260.54 10.99 256.62 8.9 252.18 C6.22 246.37 6.22 246.37 2.46 241.24 C-0.17 240.91 -0.17 240.91 -2.54 241.24 Z M-5.54 243.24 C-5.21 244.23 -4.88 245.22 -4.54 246.24 C-4.54 245.25 -4.54 244.26 -4.54 243.24 C-4.87 243.24 -5.2 243.24 -5.54 243.24 Z M-92.54 246.24 C-94.33 254.15 -92.11 260.1 -88.54 267.24 C-87.88 267.24 -87.22 267.24 -86.54 267.24 C-86.48 268.14 -86.48 268.14 -86.42 269.06 C-85.67 271.56 -85.67 271.56 -82.67 272.99 C-79.64 274.43 -79.64 274.43 -76.54 274.24 C-77.26 272.23 -77.26 272.23 -78.54 270.24 C-80.58 269.59 -80.58 269.59 -82.54 269.24 C-82.47 268.26 -82.47 268.26 -82.4 267.27 C-82.16 261.38 -82.42 257.83 -86.54 253.24 C-87.53 252.91 -88.52 252.58 -89.54 252.24 C-90.73 249.18 -90.73 249.18 -91.54 246.24 C-91.87 246.24 -92.2 246.24 -92.54 246.24 Z M-183.54 251.24 C-182.54 253.24 -182.54 253.24 -182.54 253.24 Z M-113.54 257.24 C-114.42 259.45 -114.42 259.45 -114.54 262.24 C-113.29 264.29 -111.94 266.29 -110.54 268.24 C-109.81 269.28 -109.08 270.32 -108.32 271.38 C-107.57 272.41 -106.82 273.44 -106.04 274.49 C-105.29 275.53 -104.53 276.57 -103.76 277.63 C-101.71 280.04 -100.45 281.16 -97.54 282.24 C-94.19 280.01 -92.72 278.98 -91.73 274.99 C-91.63 273.63 -91.63 273.63 -91.54 272.24 C-92.22 271.85 -92.9 271.46 -93.6 271.06 C-98.18 268.23 -102.4 265.41 -106.17 261.56 C-108.57 259.21 -110.37 258.24 -113.54 257.24 Z M74.46 268.24 C75.46 270.24 75.46 270.24 75.46 270.24 Z M-11.54 286.24 C-10.54 288.24 -10.54 288.24 -10.54 288.24 Z M-365.54 300.24 C-364.54 302.24 -364.54 302.24 -364.54 302.24 Z M117.46 325.24 C117.79 326.23 118.12 327.22 118.46 328.24 C118.46 329.23 118.46 330.22 118.46 331.24 C117.47 331.9 116.48 332.56 115.46 333.24 C115.79 334.56 116.12 335.88 116.46 337.24 C115.47 336.58 114.48 335.92 113.46 335.24 C110.91 341.13 110.91 341.13 111.27 347.31 C111.66 347.94 112.06 348.58 112.46 349.24 C111.8 349.57 111.14 349.9 110.46 350.24 C110.13 351.23 109.8 352.22 109.46 353.24 C108.8 353.57 108.14 353.9 107.46 354.24 C106.51 356.21 106.51 356.21 105.77 358.56 C105.5 359.34 105.23 360.12 104.95 360.92 C104.41 363.46 104.5 364.85 105.46 367.24 C106.12 367.57 106.78 367.9 107.46 368.24 C107.79 369.23 108.12 370.22 108.46 371.24 C107.5 371.4 107.5 371.4 106.52 371.56 C105.5 371.9 105.5 371.9 104.46 372.24 C104.13 373.23 103.8 374.22 103.46 375.24 C102.8 375.24 102.14 375.24 101.46 375.24 C100.96 373.76 100.96 373.76 100.46 372.24 C98.08 375.89 98.71 378.08 99.46 382.24 C99.02 385.62 99.02 385.62 98.46 388.24 C99.45 388.57 100.44 388.9 101.46 389.24 C101.79 391.88 102.12 394.52 102.46 397.24 C101.47 397.74 101.47 397.74 100.46 398.24 C101.12 398.24 101.78 398.24 102.46 398.24 C102.68 399.2 102.68 399.2 102.9 400.18 C103.27 402.22 103.27 402.22 104.46 403.24 C109.08 403.5 113.71 403.43 118.33 403.43 C119.64 403.44 120.95 403.45 122.29 403.47 C123.54 403.47 124.79 403.47 126.08 403.47 C127.23 403.48 128.38 403.48 129.56 403.49 C132.66 403.46 132.66 403.46 135.46 401.24 C135.46 399.92 135.46 398.6 135.46 397.24 C136.12 397.24 136.78 397.24 137.46 397.24 C138.11 395.29 138.76 393.33 139.4 391.37 C140.33 388.61 141.37 385.94 142.46 383.24 C142.94 381.97 143.42 380.7 143.9 379.43 C144.28 378.41 144.28 378.41 144.67 377.37 C145.2 375.93 145.73 374.5 146.25 373.06 C147.42 369.84 148.55 367.11 150.46 364.24 C151.14 361.91 151.8 359.58 152.46 357.24 C153.09 355.89 153.76 354.56 154.46 353.24 C155.14 351.58 155.81 349.92 156.46 348.24 C156.79 348.24 157.12 348.24 157.46 348.24 C157.75 347.12 157.75 347.12 158.05 345.98 C158.31 344.99 158.57 344.01 158.83 342.99 C159.09 342.02 159.35 341.04 159.61 340.04 C160.36 337.57 161.23 335.5 162.46 333.24 C163.95 330.51 164.46 329.44 164.46 326.24 C148.95 325.91 133.44 325.58 117.46 325.24 Z M205.46 325.24 C206.12 325.57 206.78 325.9 207.46 326.24 C206.98 327.87 206.5 329.49 206.02 331.12 C205.76 332.02 205.49 332.93 205.21 333.86 C204.46 336.24 204.46 336.24 203.46 338.24 C202.47 337.58 201.48 336.92 200.46 336.24 C200.1 337.84 199.74 339.45 199.4 341.06 C199.1 342.4 199.1 342.4 198.8 343.76 C198.26 346.37 198.26 346.37 199.46 349.24 C198.84 350.13 198.22 351.02 197.58 351.93 C195.59 355.04 195.16 356.09 194.83 359.56 C194.71 360.77 194.59 361.99 194.46 363.24 C193.47 363.74 193.47 363.74 192.46 364.24 C192.13 365.23 191.8 366.22 191.46 367.24 C190.8 368.23 190.14 369.22 189.46 370.24 C187.03 374.45 187.03 374.45 186.52 379.18 C186.45 382.84 185.37 384.54 183.48 387.58 C182.18 389.7 181.34 391.92 180.46 394.24 C179.81 395.58 179.15 396.92 178.46 398.24 C179.12 398.24 179.78 398.24 180.46 398.24 C180.46 398.9 180.46 399.56 180.46 400.24 C179.14 399.91 177.82 399.58 176.46 399.24 C177.12 400.56 177.78 401.88 178.46 403.24 C184.4 403.27 190.35 403.29 196.29 403.3 C198.32 403.3 200.34 403.31 202.36 403.32 C205.27 403.33 208.17 403.34 211.08 403.34 C212.44 403.35 212.44 403.35 213.83 403.36 C215.09 403.36 215.09 403.36 216.38 403.36 C217.49 403.36 217.49 403.36 218.62 403.36 C220.56 403.36 220.56 403.36 222.46 402.24 C225.03 397.63 226.64 392.93 228.18 387.9 C228.44 387.08 228.69 386.27 228.96 385.43 C229.2 384.66 229.43 383.89 229.68 383.1 C230.46 381.24 230.46 381.24 232.46 380.24 C232.85 378.38 232.85 378.38 232.96 376.24 C233.12 374.06 233.12 374.06 233.46 372.24 C234.12 371.91 234.78 371.58 235.46 371.24 C235.87 368.92 236.2 366.59 236.46 364.24 C237.45 363.91 238.44 363.58 239.46 363.24 C239.6 362.46 239.75 361.68 239.9 360.87 C240.46 358.24 240.46 358.24 241.46 356.24 C240.96 355.25 240.96 355.25 240.46 354.24 C241.45 353.91 242.44 353.58 243.46 353.24 C243.79 350.6 244.12 347.96 244.46 345.24 C245.12 345.24 245.78 345.24 246.46 345.24 C246.95 343.76 246.95 343.76 247.46 342.24 C246.96 341.25 246.96 341.25 246.46 340.24 C247.12 340.24 247.78 340.24 248.46 340.24 C248.65 338.88 248.65 338.88 248.83 337.49 C249.39 334.61 250.17 332.82 251.46 330.24 C251.46 328.92 251.46 327.6 251.46 326.24 C236.28 325.91 221.1 325.58 205.46 325.24 Z M116.46 328.24 C117.46 331.24 117.46 331.24 117.46 331.24 Z M204.46 328.24 C204.13 329.89 203.8 331.54 203.46 333.24 C204.12 332.25 204.78 331.26 205.46 330.24 C205.13 329.58 204.8 328.92 204.46 328.24 Z M202.46 333.24 C202.13 334.23 201.8 335.22 201.46 336.24 C202.12 336.24 202.78 336.24 203.46 336.24 C203.13 335.25 202.8 334.26 202.46 333.24 Z M109.46 345.24 C109.13 346.56 108.8 347.88 108.46 349.24 C109.12 348.91 109.78 348.58 110.46 348.24 C110.13 347.25 109.8 346.26 109.46 345.24 Z M197.46 346.24 C198.46 349.24 198.46 349.24 198.46 349.24 Z M107.46 350.24 C108.46 352.24 108.46 352.24 108.46 352.24 Z M193.46 355.24 C194.46 358.24 194.46 358.24 194.46 358.24 Z M191.46 360.24 C192.46 362.24 192.46 362.24 192.46 362.24 Z M190.46 362.24 C191.46 364.24 191.46 364.24 191.46 364.24 Z M189.46 364.24 C190.46 366.24 190.46 366.24 190.46 366.24 Z M102.46 368.24 C102.13 369.56 101.8 370.88 101.46 372.24 C102.12 371.91 102.78 371.58 103.46 371.24 C103.13 370.25 102.8 369.26 102.46 368.24 Z M187.46 369.24 C188.46 372.24 188.46 372.24 188.46 372.24 Z M186.46 372.24 C187.46 374.24 187.46 374.24 187.46 374.24 Z M185.46 374.24 C186.46 376.24 186.46 376.24 186.46 376.24 Z M183.46 379.24 C184.46 381.24 184.46 381.24 184.46 381.24 Z M97.46 380.24 C98.46 382.24 98.46 382.24 98.46 382.24 Z M96.46 382.24 C97.46 385.24 97.46 385.24 97.46 385.24 Z M95.46 385.24 C96.46 387.24 96.46 387.24 96.46 387.24 Z M179.46 391.24 C180.46 393.24 180.46 393.24 180.46 393.24 Z M410.46 550.24 C411.46 552.24 411.46 552.24 411.46 552.24 Z " fill="#C82532" transform="translate(610.540283203125,-0.242919921875)"/>
<path d="M0 0 C1.92 -0 1.92 -0 3.87 -0.01 C5.25 -0 6.63 0 8.01 0.01 C9.43 0.01 10.86 0.01 12.28 0.01 C15.26 0.02 18.23 0.02 21.2 0.04 C25.02 0.05 28.84 0.06 32.65 0.06 C35.59 0.06 38.52 0.06 41.46 0.07 C42.87 0.07 44.28 0.08 45.68 0.08 C47.65 0.08 49.61 0.09 51.57 0.1 C53.24 0.1 53.24 0.1 54.95 0.11 C57.46 0.24 57.46 0.24 58.46 1.24 C60.92 1.43 63.37 1.57 65.83 1.68 C71.45 1.98 76.85 2.52 82.37 3.65 C84.85 4.13 87.3 4.53 89.8 4.9 C99.01 6.26 107.95 7.95 116.94 10.38 C120.43 11.3 120.43 11.3 123.92 11.71 C127.92 12.31 131.56 13.41 135.4 14.68 C139.45 16 143.48 17.28 147.62 18.29 C155.87 20.33 163.82 23.34 171.77 26.31 C172.43 26.55 173.09 26.8 173.76 27.05 C182.52 30.35 190.99 34.28 199.46 38.24 C200.68 38.82 200.68 38.82 201.93 39.4 C232.21 53.61 262.41 70.79 287.46 93.24 C287.46 93.9 287.46 94.56 287.46 95.24 C288 95.3 288.54 95.36 289.1 95.42 C292.49 96.6 294.68 98.93 297.21 101.37 C298.29 102.38 299.37 103.4 300.44 104.41 C300.96 104.9 301.48 105.39 302.02 105.9 C303.79 107.55 305.62 109.12 307.46 110.68 C311.09 113.84 314.53 117.18 317.96 120.56 C318.5 121.08 319.04 121.61 319.6 122.16 C320.93 123.48 322.2 124.86 323.46 126.24 C323.46 126.9 323.46 127.56 323.46 128.24 C324.45 128.57 325.44 128.9 326.46 129.24 C327.93 130.7 327.93 130.7 329.52 132.62 C332.29 135.9 335.15 139.05 338.08 142.18 C344.16 148.84 349.53 156 354.93 163.21 C356.34 165.08 357.76 166.96 359.18 168.82 C362.5 173.21 365.65 177.52 368.46 182.24 C369.61 183.92 370.78 185.59 371.96 187.24 C378.46 196.37 378.46 196.37 378.46 200.24 C379.12 200.24 379.78 200.24 380.46 200.24 C381.28 201.79 381.28 201.79 382.11 203.36 C382.47 204.04 382.83 204.72 383.2 205.42 C384.01 206.95 384.82 208.48 385.63 210.01 C387.65 213.85 389.69 217.68 391.78 221.49 C397.4 231.8 402.08 242.35 406.46 253.24 C406.86 254.22 407.26 255.2 407.67 256.21 C408.62 258.55 409.54 260.89 410.46 263.24 C411.07 264.81 411.07 264.81 411.7 266.41 C430.33 314.3 430.33 314.3 427.46 330.24 C427.13 329.58 426.8 328.92 426.46 328.24 C425.47 328.24 424.48 328.24 423.46 328.24 C422.44 326.93 421.44 325.59 420.46 324.24 C419.47 323.91 418.48 323.58 417.46 323.24 C417.46 322.25 417.46 321.26 417.46 320.24 C416.47 320.24 415.48 320.24 414.46 320.24 C414.46 319.25 414.46 318.26 414.46 317.24 C413.8 317.24 413.14 317.24 412.46 317.24 C411.21 315.76 409.96 314.27 408.75 312.76 C407.18 310.92 405.42 309.65 403.46 308.24 C400.71 305.68 400.71 305.68 398.46 303.24 C398.46 302.58 398.46 301.92 398.46 301.24 C397.47 301.24 396.48 301.24 395.46 301.24 C395.46 300.25 395.46 299.26 395.46 298.24 C394.47 298.24 393.48 298.24 392.46 298.24 C392.46 297.25 392.46 296.26 392.46 295.24 C391.47 295.24 390.48 295.24 389.46 295.24 C389.46 294.25 389.46 293.26 389.46 292.24 C388.8 292.24 388.14 292.24 387.46 292.24 C386.8 291.25 386.14 290.26 385.46 289.24 C384.47 288.91 383.48 288.58 382.46 288.24 C382.01 287.46 381.55 286.68 381.08 285.87 C379.23 282.87 377.43 282.01 374.46 280.24 C374.46 279.25 374.46 278.26 374.46 277.24 C373.47 277.24 372.48 277.24 371.46 277.24 C370.45 275.58 369.45 273.91 368.46 272.24 C366.39 270.91 366.39 270.91 364.46 270.24 C364.46 269.25 364.46 268.26 364.46 267.24 C363.47 267.24 362.48 267.24 361.46 267.24 C361.46 266.25 361.46 265.26 361.46 264.24 C360.8 264.24 360.14 264.24 359.46 264.24 C359.46 263.58 359.46 262.92 359.46 262.24 C358.47 262.24 357.48 262.24 356.46 262.24 C356.46 261.25 356.46 260.26 356.46 259.24 C355.47 259.24 354.48 259.24 353.46 259.24 C353.13 257.92 352.8 256.6 352.46 255.24 C351.47 255.24 350.48 255.24 349.46 255.24 C348.45 253.58 347.45 251.91 346.46 250.24 C344.39 248.91 344.39 248.91 342.46 248.24 C342.46 247.25 342.46 246.26 342.46 245.24 C341.47 245.24 340.48 245.24 339.46 245.24 C339.46 244.25 339.46 243.26 339.46 242.24 C338.47 242.24 337.48 242.24 336.46 242.24 C336.46 241.25 336.46 240.26 336.46 239.24 C335.8 239.24 335.14 239.24 334.46 239.24 C334.46 238.58 334.46 237.92 334.46 237.24 C333.47 237.24 332.48 237.24 331.46 237.24 C331.46 236.58 331.46 235.92 331.46 235.24 C330.8 235.24 330.14 235.24 329.46 235.24 C329.46 234.25 329.46 233.26 329.46 232.24 C328.8 232.24 328.14 232.24 327.46 232.24 C326.22 230.74 324.98 229.24 323.77 227.71 C322.2 225.96 320.66 225.06 318.46 224.24 C318.46 223.25 318.46 222.26 318.46 221.24 C317.8 221.24 317.14 221.24 316.46 221.24 C315.8 220.25 315.14 219.26 314.46 218.24 C313.47 217.91 312.48 217.58 311.46 217.24 C311.46 216.25 311.46 215.26 311.46 214.24 C310.8 214.24 310.14 214.24 309.46 214.24 C309.46 213.58 309.46 212.92 309.46 212.24 C308.47 212.24 307.48 212.24 306.46 212.24 C306.46 211.25 306.46 210.26 306.46 209.24 C305.47 209.24 304.48 209.24 303.46 209.24 C303.46 208.25 303.46 207.26 303.46 206.24 C302.47 206.24 301.48 206.24 300.46 206.24 C300.46 205.25 300.46 204.26 300.46 203.24 C299.14 202.91 297.82 202.58 296.46 202.24 C296.46 201.25 296.46 200.26 296.46 199.24 C295.47 199.24 294.48 199.24 293.46 199.24 C292.45 197.58 291.45 195.91 290.46 194.24 C288.39 192.91 288.39 192.91 286.46 192.24 C286.46 191.25 286.46 190.26 286.46 189.24 C285.8 189.24 285.14 189.24 284.46 189.24 C282.83 187.87 282.83 187.87 281.46 186.24 C281.46 185.58 281.46 184.92 281.46 184.24 C280.47 184.24 279.48 184.24 278.46 184.24 C278.46 183.25 278.46 182.26 278.46 181.24 C277.56 181.09 277.56 181.09 276.65 180.93 C274.11 180.13 273.2 179.21 271.46 177.24 C270.76 176.6 270.76 176.6 270.05 175.95 C268.14 173.9 266.94 171.75 265.58 169.31 C261.86 163.02 257.57 159.33 250.46 157.24 C244.33 155.98 244.33 155.98 238.46 157.24 C236.48 157.47 234.51 157.7 232.53 157.93 C230.28 158.21 230.28 158.21 227.52 159.24 C224.93 160.09 223 160.45 220.33 160.68 C210.72 161.37 210.72 161.37 202.46 165.24 C200.65 165.55 198.84 165.81 197.02 166.06 C191.44 166.88 185.96 167.94 180.46 169.18 C179.31 169.44 179.31 169.44 178.14 169.7 C174.63 170.5 171.13 171.32 167.63 172.17 C165.94 172.58 165.94 172.58 164.21 172.99 C163.24 173.24 162.26 173.48 161.26 173.73 C158.26 174.28 155.5 174.3 152.46 174.24 C150.78 174.51 149.12 174.86 147.46 175.24 C146.35 175.48 146.35 175.48 145.22 175.72 C140.71 176.61 140.71 176.61 136.46 178.24 C135.13 178.42 133.8 178.56 132.46 178.68 C125.85 179.37 119.43 180.49 113.15 182.68 C104.43 185.72 95.36 187.33 86.26 188.77 C79.16 189.84 79.16 189.84 72.46 192.24 C70.22 192.31 67.99 192.24 65.75 192.18 C61.87 192.29 58.44 193.56 54.77 194.74 C50.7 195.98 46.87 196.63 42.64 196.99 C39.15 197.39 35.85 198.35 32.46 199.24 C31.8 199.24 31.14 199.24 30.46 199.24 C29.18 199.67 27.91 200.12 26.64 200.58 C20.73 202.59 14.71 203.68 8.58 204.81 C6.92 205.12 6.92 205.12 5.23 205.44 C1.97 206.05 -1.28 206.65 -4.54 207.24 C-5.54 207.43 -6.55 207.62 -7.58 207.81 C-12.43 208.71 -17.26 209.51 -22.17 210.12 C-30.43 211.26 -38.44 213.26 -46.54 215.24 C-48.12 215.6 -49.71 215.96 -51.29 216.31 C-54.68 217.05 -58.06 217.82 -61.44 218.6 C-63.17 219 -63.17 219 -64.93 219.41 C-67.29 219.95 -69.64 220.5 -72 221.05 C-75.45 221.85 -78.9 222.64 -82.35 223.43 C-84.1 223.84 -84.1 223.84 -85.87 224.26 C-95.38 226.41 -95.38 226.41 -99.91 226.31 C-103.88 226.24 -106.97 226.94 -110.79 227.99 C-117.13 229.69 -123.47 231.07 -129.92 232.31 C-135.84 233.45 -141.55 234.74 -147.3 236.6 C-150.78 237.6 -154.33 238.09 -157.91 238.64 C-163.53 239.57 -169.11 240.75 -174.69 241.92 C-175.51 242.09 -176.34 242.26 -177.2 242.44 C-177.94 242.59 -178.68 242.75 -179.44 242.91 C-181.54 243.24 -181.54 243.24 -185.54 243.24 C-185.87 243.9 -186.2 244.56 -186.54 245.24 C-187.53 244.91 -188.52 244.58 -189.54 244.24 C-192.79 244.55 -195.97 245.28 -199.17 245.93 C-200.03 246.09 -200.9 246.25 -201.79 246.42 C-210.12 248.09 -220.54 251.06 -225.95 258.06 C-234.44 271.04 -232.01 285.81 -229 300.25 C-226.8 309.73 -222.59 316.61 -214.54 322.24 C-211.86 323.48 -211.86 323.48 -209.54 324.24 C-209.54 324.9 -209.54 325.56 -209.54 326.24 C-208.55 326.57 -207.56 326.9 -206.54 327.24 C-207.22 327.56 -207.89 327.87 -208.59 328.2 C-209.93 328.84 -209.93 328.84 -211.29 329.49 C-212.61 330.12 -212.61 330.12 -213.96 330.76 C-218.81 333.55 -221.04 336.72 -223.23 341.81 C-223.64 342.76 -224.06 343.71 -224.49 344.68 C-226.97 350.73 -226.8 356.26 -226.84 362.74 C-226.85 364.1 -226.87 365.47 -226.9 366.84 C-227.15 378.52 -225.82 387.75 -217.59 396.49 C-212.13 401.15 -205.44 403.59 -198.54 405.24 C-198.57 407.2 -198.61 409.15 -198.64 411.1 C-198.62 413.22 -198.62 413.22 -198.04 415.14 C-197.21 418.61 -197.42 422.15 -197.44 425.7 C-197.44 426.99 -197.44 426.99 -197.44 428.31 C-197.45 431.2 -197.46 434.09 -197.47 436.99 C-197.48 439.06 -197.48 441.13 -197.49 443.2 C-197.5 447.66 -197.51 452.13 -197.53 456.59 C-197.55 463.64 -197.56 470.7 -197.57 477.75 C-197.61 497.81 -197.65 517.88 -197.71 537.94 C-197.75 549.01 -197.77 560.09 -197.78 571.17 C-197.79 577.03 -197.8 582.9 -197.83 588.76 C-197.85 594.27 -197.86 599.79 -197.86 605.3 C-197.86 607.32 -197.87 609.35 -197.88 611.37 C-197.9 614.14 -197.9 616.9 -197.89 619.66 C-197.9 620.46 -197.91 621.27 -197.92 622.09 C-197.89 626.71 -197.21 629.48 -194.54 633.24 C-194.54 633.9 -194.54 634.56 -194.54 635.24 C-191.76 640.67 -188 643.22 -182.88 646.43 C-180.54 648.24 -180.54 648.24 -179.28 650.45 C-177.05 654.03 -174.3 656.75 -171.32 659.7 C-170.68 660.34 -170.05 660.97 -169.4 661.62 C-167.27 663.75 -165.15 665.86 -163.02 667.98 C-161.5 669.5 -159.97 671.02 -158.45 672.54 C-155.17 675.81 -151.89 679.09 -148.61 682.35 C-143.42 687.52 -138.24 692.7 -133.06 697.87 C-124.86 706.06 -116.66 714.23 -108.46 722.41 C-93.77 737.06 -79.08 751.71 -64.4 766.37 C-59.25 771.52 -54.09 776.66 -48.93 781.8 C-45.72 784.99 -42.52 788.19 -39.32 791.39 C-37.83 792.87 -36.34 794.36 -34.85 795.84 C-32.82 797.86 -30.79 799.89 -28.77 801.91 C-28.17 802.5 -27.58 803.09 -26.97 803.69 C-24.26 806.41 -21.73 809.07 -19.54 812.24 C-20.2 812.24 -20.86 812.24 -21.54 812.24 C-21.54 812.9 -21.54 813.56 -21.54 814.24 C-29.82 814.64 -37.52 813.13 -45.6 811.49 C-47.01 811.21 -48.41 810.94 -49.81 810.66 C-59.13 808.79 -68.38 806.79 -77.54 804.24 C-78.37 804.02 -79.19 803.79 -80.05 803.56 C-90.02 800.81 -99.89 797.99 -109.54 794.24 C-111.14 793.65 -112.74 793.06 -114.34 792.47 C-124.34 788.75 -134.11 784.79 -143.71 780.12 C-145.59 779.22 -147.49 778.37 -149.4 777.52 C-164.9 770.58 -179.75 761.98 -193.78 752.41 C-195.54 751.19 -195.54 751.19 -197.54 750.24 C-197.54 749.58 -197.54 748.92 -197.54 748.24 C-198.08 748.16 -198.61 748.08 -199.17 747.99 C-202.41 746.97 -204.83 745.28 -207.54 743.24 C-207.54 742.58 -207.54 741.92 -207.54 741.24 C-208.11 741.14 -208.69 741.03 -209.28 740.93 C-211.9 740.13 -213.56 738.97 -215.73 737.31 C-216.42 736.78 -217.12 736.26 -217.83 735.72 C-219.54 734.24 -219.54 734.24 -220.54 732.24 C-221.87 731.57 -223.21 730.91 -224.54 730.24 C-226.32 728.95 -228.07 727.61 -229.79 726.24 C-230.68 725.54 -231.57 724.84 -232.49 724.12 C-233.17 723.5 -233.84 722.88 -234.54 722.24 C-234.54 721.58 -234.54 720.92 -234.54 720.24 C-235.28 720 -236.03 719.75 -236.79 719.49 C-239.77 718.14 -241.44 716.73 -243.54 714.24 C-243.54 713.58 -243.54 712.92 -243.54 712.24 C-244.6 711.91 -244.6 711.91 -245.68 711.57 C-249.18 709.94 -251.57 707.65 -254.24 704.94 C-254.77 704.42 -255.29 703.9 -255.83 703.36 C-256.93 702.26 -258.02 701.16 -259.12 700.06 C-260.79 698.37 -262.48 696.7 -264.17 695.03 C-265.23 693.96 -266.3 692.89 -267.37 691.81 C-267.87 691.32 -268.38 690.82 -268.9 690.3 C-271.45 687.7 -272.92 685.85 -273.54 682.24 C-275.42 681.16 -275.42 681.16 -277.54 680.24 C-279.15 678.68 -279.15 678.68 -280.73 676.81 C-281.33 676.1 -281.93 675.38 -282.55 674.65 C-283.21 673.86 -283.86 673.06 -284.54 672.24 C-285.65 670.91 -285.65 670.91 -286.78 669.55 C-291.19 664.22 -295.45 658.81 -299.54 653.24 C-300.09 652.57 -300.64 651.9 -301.2 651.21 C-302.54 649.24 -302.54 649.24 -302.54 646.24 C-303.53 645.91 -304.52 645.58 -305.54 645.24 C-307.08 643.1 -308.48 640.99 -309.85 638.74 C-310.65 637.47 -311.45 636.19 -312.24 634.91 C-312.83 633.98 -312.83 633.98 -313.42 633.02 C-315.37 629.92 -317.46 626.92 -319.54 623.91 C-320.54 622.24 -320.54 622.24 -320.54 620.24 C-321.2 619.91 -321.86 619.58 -322.54 619.24 C-323.47 617.64 -323.47 617.64 -324.42 615.62 C-327.75 608.44 -327.75 608.44 -332.54 602.24 C-333.28 600.57 -334.01 598.89 -334.7 597.2 C-335.49 595.37 -336.39 593.58 -337.29 591.81 C-342.17 582.18 -346.24 572.09 -350.35 562.11 C-351.18 560.12 -352.01 558.14 -352.85 556.15 C-362.54 533.29 -362.54 533.29 -362.54 524.24 C-363.2 523.91 -363.86 523.58 -364.54 523.24 C-365.08 521.03 -365.52 518.8 -365.92 516.56 C-366.84 511.49 -367.96 506.61 -369.48 501.68 C-371.31 495.49 -372.58 489.28 -373.73 482.93 C-373.89 482.01 -374.06 481.09 -374.23 480.15 C-375.08 475.33 -375.78 470.52 -376.28 465.66 C-376.58 462.83 -376.94 460 -377.29 457.18 C-377.43 456.11 -377.56 455.05 -377.69 453.96 C-377.97 451.77 -378.24 449.58 -378.52 447.39 C-379.08 442.86 -379.63 438.41 -379.57 433.84 C-379.43 430.37 -379.43 430.37 -380.03 427.52 C-380.62 423.75 -380.68 420.06 -380.67 416.25 C-380.67 415.51 -380.68 414.77 -380.68 414 C-380.68 412.44 -380.67 410.88 -380.67 409.32 C-380.67 406.92 -380.67 404.52 -380.68 402.12 C-380.68 400.6 -380.68 399.09 -380.67 397.57 C-380.68 396.49 -380.68 396.49 -380.68 395.39 C-380.66 390.36 -380.66 390.36 -379.54 389.24 C-379.54 387.24 -379.55 385.24 -379.57 383.24 C-379.49 374.24 -378.84 365.15 -377.54 356.24 C-376.88 356.24 -376.22 356.24 -375.54 356.24 C-375.73 355.11 -375.93 353.97 -376.13 352.81 C-376.72 348.06 -376.05 343.89 -375.1 339.24 C-374.88 338.08 -374.88 338.08 -374.66 336.9 C-374.29 335.01 -373.92 333.13 -373.54 331.24 C-372.88 331.24 -372.22 331.24 -371.54 331.24 C-371.75 330.05 -371.95 328.85 -372.17 327.62 C-372.68 323.69 -372.11 320.93 -370.54 317.24 C-369.88 317.24 -369.22 317.24 -368.54 317.24 C-368.73 316.68 -368.92 316.12 -369.12 315.54 C-369.63 312.75 -369.14 311.23 -368.23 308.56 C-367.16 305.25 -366.23 302.02 -365.54 298.62 C-364.77 294.96 -363.65 291.61 -362.22 288.16 C-361.47 286.2 -361.47 286.2 -361.07 283.87 C-360.49 280.97 -359.62 278.29 -358.67 275.49 C-357.15 271.04 -355.67 266.57 -354.25 262.08 C-353.54 260.24 -353.54 260.24 -351.54 257.24 C-350.84 255.59 -350.18 253.92 -349.54 252.24 C-349.2 251.39 -348.86 250.55 -348.51 249.67 C-348.17 248.83 -347.83 247.99 -347.48 247.12 C-347.14 246.27 -346.79 245.42 -346.44 244.55 C-345.76 242.8 -345.13 241.03 -344.54 239.24 C-343.56 237.23 -342.56 235.23 -341.54 233.24 C-340.87 231.91 -340.21 230.58 -339.54 229.24 C-337.04 224.24 -337.04 224.24 -334.54 219.24 C-334.08 218.32 -334.08 218.32 -333.62 217.37 C-331.59 213.37 -329.33 209.51 -327.1 205.62 C-326.37 204.31 -326.37 204.31 -325.62 202.98 C-325.14 202.14 -324.66 201.31 -324.17 200.45 C-323.52 199.31 -323.52 199.31 -322.86 198.15 C-321.54 196.24 -321.54 196.24 -318.54 194.24 C-318.19 192.58 -317.86 190.91 -317.54 189.24 C-316.12 186.88 -316.12 186.88 -314.35 184.49 C-311.34 180.37 -308.53 176.18 -305.8 171.86 C-305.39 171.33 -304.97 170.79 -304.54 170.24 C-303.88 170.24 -303.22 170.24 -302.54 170.24 C-302.28 169.52 -302.03 168.81 -301.76 168.07 C-297.65 158.57 -289.48 149.78 -281.97 142.77 C-280.44 141.27 -280.44 141.27 -279.45 139.16 C-276.67 134.92 -273.14 131.56 -269.55 127.99 C-268.77 127.2 -267.98 126.42 -267.18 125.61 C-265.52 123.95 -263.87 122.3 -262.21 120.65 C-259.67 118.13 -257.15 115.59 -254.63 113.06 C-253.02 111.45 -251.41 109.84 -249.8 108.24 C-249.05 107.48 -248.29 106.72 -247.52 105.94 C-244.06 102.51 -240.9 99.52 -236.54 97.24 C-235.82 96.69 -235.1 96.13 -234.35 95.56 C-232.54 94.24 -232.54 94.24 -230.54 94.24 C-229.88 92.59 -229.22 90.94 -228.54 89.24 C-227.22 89.24 -225.9 89.24 -224.54 89.24 C-224.21 88.25 -223.88 87.26 -223.54 86.24 C-221.59 84.58 -219.67 83.06 -217.6 81.56 C-217.05 81.14 -216.5 80.72 -215.93 80.3 C-211.81 77.24 -211.81 77.24 -209.54 77.24 C-209.33 76.64 -209.13 76.05 -208.92 75.43 C-207 72.38 -204.8 71.78 -201.54 70.24 C-197.74 67.86 -194.02 65.37 -190.45 62.66 C-187.44 60.43 -184.2 58.54 -180.48 57.87 C-177.43 56.88 -175.74 54.5 -173.54 52.24 C-172.55 51.91 -171.56 51.58 -170.54 51.24 C-169.02 50.47 -169.02 50.47 -167.48 49.68 C-164.54 48.24 -164.54 48.24 -162.54 48.24 C-162.54 47.58 -162.54 46.92 -162.54 46.24 C-161.65 45.97 -160.77 45.71 -159.85 45.43 C-156.58 44.4 -156.58 44.4 -154.1 42.68 C-150.94 40.9 -148.13 40.59 -144.54 40.24 C-144.54 39.58 -144.54 38.92 -144.54 38.24 C-143.24 37.65 -143.24 37.65 -141.91 37.04 C-140.76 36.51 -139.6 35.98 -138.42 35.43 C-137.28 34.91 -136.14 34.39 -134.97 33.85 C-132.74 32.8 -130.53 31.71 -128.35 30.56 C-124.92 28.95 -122.29 29.02 -118.54 29.24 C-118.54 28.58 -118.54 27.92 -118.54 27.24 C-115.23 25.51 -112.21 23.98 -108.54 23.24 C-105.76 22.6 -103.14 21.77 -100.48 20.74 C-96.67 19.28 -93.47 18.11 -89.35 18.18 C-87.47 18.21 -87.47 18.21 -85.54 18.24 C-85.54 17.58 -85.54 16.92 -85.54 16.24 C-81.2 14.65 -77.11 13.9 -72.54 13.24 C-70.54 12.59 -68.54 11.92 -66.54 11.24 C-64.27 10.71 -61.99 10.23 -59.71 9.75 C-57.34 9.24 -57.34 9.24 -54.35 8.12 C-51.28 7.16 -48.74 7.17 -45.54 7.24 C-44.88 6.91 -44.22 6.58 -43.54 6.24 C-41.66 6.01 -39.78 5.78 -37.9 5.56 C-34.54 5.11 -31.24 4.38 -27.93 3.65 C-25.43 3.22 -23.08 3.22 -20.54 3.24 C-19.46 2.96 -19.46 2.96 -18.35 2.68 C-16.54 2.24 -16.54 2.24 -14.54 3.24 C-14.21 2.58 -13.88 1.92 -13.54 1.24 C-13.21 1.57 -12.88 1.9 -12.54 2.24 C-11.69 1.92 -10.83 1.59 -9.95 1.26 C-6.43 0.21 -3.66 -0 0 0 Z M-205.54 73.24 C-205.87 73.9 -206.2 74.56 -206.54 75.24 C-205.55 74.91 -204.56 74.58 -203.54 74.24 C-204.2 73.91 -204.86 73.58 -205.54 73.24 Z M-294.54 158.24 C-293.54 160.24 -293.54 160.24 -293.54 160.24 Z M22.46 198.24 C26.46 199.24 26.46 199.24 26.46 199.24 Z M16.46 199.24 C16.46 199.57 16.46 199.9 16.46 200.24 C18.44 200.24 20.42 200.24 22.46 200.24 C22.46 199.91 22.46 199.58 22.46 199.24 C20.48 199.24 18.5 199.24 16.46 199.24 Z M10.46 200.24 C10.46 200.57 10.46 200.9 10.46 201.24 C12.44 201.24 14.42 201.24 16.46 201.24 C16.46 200.91 16.46 200.58 16.46 200.24 C14.48 200.24 12.5 200.24 10.46 200.24 Z M4.46 201.24 C4.46 201.57 4.46 201.9 4.46 202.24 C6.44 202.24 8.42 202.24 10.46 202.24 C10.46 201.91 10.46 201.58 10.46 201.24 C8.48 201.24 6.5 201.24 4.46 201.24 Z M-329.54 211.24 C-328.54 213.24 -328.54 213.24 -328.54 213.24 Z M-68.54 216.24 C-68.54 216.57 -68.54 216.9 -68.54 217.24 C-65.57 217.24 -62.6 217.24 -59.54 217.24 C-59.54 216.91 -59.54 216.58 -59.54 216.24 C-62.51 216.24 -65.48 216.24 -68.54 216.24 Z M-73.54 217.24 C-71.56 218.23 -71.56 218.23 -69.54 219.24 C-69.21 218.58 -68.88 217.92 -68.54 217.24 C-70.19 217.24 -71.84 217.24 -73.54 217.24 Z M-77.54 218.24 C-73.54 219.24 -73.54 219.24 -73.54 219.24 Z M-81.54 219.24 C-77.54 220.24 -77.54 220.24 -77.54 220.24 Z M-365.54 300.24 C-364.54 302.24 -364.54 302.24 -364.54 302.24 Z " fill="#ED4445" transform="translate(610.540283203125,-0.242919921875)"/>
<path d="M0 0 C2.18 2.93 3 4.32 3 8 C3.66 8 4.32 8 5 8 C6.13 9.42 6.13 9.42 7.35 11.39 C8.01 12.46 8.01 12.46 8.68 13.54 C9.14 14.29 9.59 15.04 10.06 15.81 C10.52 16.55 10.98 17.29 11.46 18.05 C13.3 21.04 14.88 23.65 16 27 C16.5 27.43 16.99 27.87 17.5 28.31 C19.61 30.68 19.66 32.91 20 36 C20.99 36 21.98 36 23 36 C23.41 36.78 23.82 37.56 24.24 38.37 C24.78 39.38 25.32 40.39 25.88 41.44 C26.41 42.45 26.94 43.46 27.49 44.5 C28.76 47.1 28.76 47.1 31 48 C35 54.35 35 54.35 35 58 C36.49 58.5 36.49 58.5 38 59 C41 64.22 41 64.22 41 67 C41.66 67 42.32 67 43 67 C42.5 68.98 42.5 68.98 42 71 C41.28 71.04 40.57 71.07 39.83 71.11 C30.92 71.7 22.31 73.16 13.86 76.09 C10.47 77.17 7.54 77.14 4 77 C4 77.66 4 78.32 4 79 C15.22 79 26.44 79 38 79 C38 79.66 38 80.32 38 81 C39.49 81.5 39.49 81.5 41 82 C40.61 82.95 40.21 83.9 39.81 84.88 C38.32 88.49 36.83 92.1 35.35 95.7 C34.71 97.25 34.07 98.8 33.43 100.34 C29.23 110.54 25.08 120.75 21 131 C20.09 133.28 19.18 135.55 18.26 137.83 C17.83 138.89 17.41 139.96 16.97 141.06 C16.1 143.23 15.22 145.41 14.35 147.58 C13.93 148.63 13.51 149.68 13.07 150.77 C12.51 152.17 12.51 152.17 11.94 153.6 C11.24 155.38 10.6 157.19 10 159 C25.18 159 40.36 159 56 159 C56.99 156.03 57.98 153.06 59 150 C60.12 147.07 61.27 144.16 62.44 141.25 C62.77 140.44 63.09 139.63 63.42 138.8 C64.11 137.08 64.8 135.37 65.5 133.65 C66.57 130.97 67.65 128.29 68.72 125.62 C71.64 118.34 74.56 111.07 77.52 103.81 C78.25 102.03 78.97 100.24 79.7 98.46 C80.54 96.38 81.4 94.29 82.26 92.21 C82.81 90.85 82.81 90.85 83.38 89.45 C83.69 88.68 84.01 87.91 84.34 87.11 C85.2 84.73 85.2 84.73 85 81 C85.93 80.78 85.93 80.78 86.88 80.56 C89.03 80.07 89.03 80.07 91 79 C93.6 78.89 96.18 78.84 98.78 78.83 C99.55 78.83 100.32 78.83 101.11 78.82 C102.74 78.82 104.37 78.81 105.99 78.81 C108.49 78.81 110.99 78.79 113.48 78.78 C115.06 78.77 116.64 78.77 118.22 78.77 C118.97 78.76 119.72 78.76 120.49 78.75 C125.77 78.77 125.77 78.77 128 81 C127.61 84.39 126.57 87.37 125.29 90.51 C124.78 91.77 124.78 91.77 124.26 93.06 C123.73 94.36 123.73 94.36 123.19 95.69 C122.84 96.54 122.5 97.38 122.15 98.26 C121.45 99.98 120.75 101.71 120.04 103.43 C117.95 108.59 115.89 113.76 113.83 118.94 C112.57 122.08 111.32 125.23 110.06 128.38 C109.65 129.42 109.23 130.47 108.8 131.55 C106.28 137.84 103.7 144.1 101.01 150.33 C99.79 153.33 99.79 153.33 99 158 C121.27 158.5 121.27 158.5 144 159 C144.99 156.03 145.98 153.06 147 150 C152.12 135.25 158.27 120.88 164.32 106.49 C165.38 103.95 166.44 101.41 167.5 98.87 C168.05 97.56 168.6 96.26 169.15 94.96 C169.95 93.05 170.75 91.13 171.55 89.21 C172.02 88.09 172.49 86.97 172.98 85.81 C174.17 83.03 174.17 83.03 174 80 C187.86 80.33 201.72 80.66 216 81 C214.15 87.18 212.35 92.97 209.86 98.85 C209.56 99.55 209.27 100.26 208.97 100.98 C208.05 103.2 207.12 105.41 206.19 107.62 C204.97 110.53 203.75 113.44 202.54 116.35 C202.25 117.07 201.95 117.78 201.64 118.52 C199.3 124.18 197.11 129.9 195.01 135.66 C193.26 140.41 191.27 145 189.08 149.57 C187.86 152.3 186.95 155.16 186 158 C208.77 158.5 208.77 158.5 232 159 C232.33 157.35 232.66 155.7 233 154 C233.88 151.46 234.79 148.95 235.75 146.44 C235.99 145.8 236.23 145.16 236.48 144.5 C238.41 139.38 240.51 134.33 242.63 129.28 C244.07 125.83 245.51 122.37 246.94 118.91 C247.69 117.08 247.69 117.08 248.46 115.22 C248.97 113.98 249.49 112.74 250 111.5 C251.02 109.03 252.04 106.56 253.06 104.09 C253.55 102.91 254.04 101.72 254.54 100.5 C255.5 98.19 256.49 95.89 257.49 93.6 C257.95 92.54 258.4 91.49 258.88 90.41 C259.49 89.02 259.49 89.02 260.12 87.6 C261.03 84.9 261.17 82.83 261 80 C264.99 78.69 269.04 78.84 273.2 78.83 C274.38 78.83 274.38 78.83 275.59 78.82 C277.25 78.82 278.91 78.81 280.57 78.81 C283.12 78.81 285.67 78.79 288.22 78.78 C289.84 78.77 291.45 78.77 293.07 78.77 C294.22 78.76 294.22 78.76 295.39 78.75 C300.77 78.77 300.77 78.77 303 81 C304.25 82.87 304.25 82.87 305 85 C304.25 86.94 304.25 86.94 303 89 C302.32 90.66 301.65 92.33 301 94 C300.01 93.34 299.02 92.68 298 92 C296.47 96.59 296.04 99.33 297 104 C296.06 107.31 296.06 107.31 295 110 C294.34 109.67 293.68 109.34 293 109 C292.49 110.44 292 111.87 291.5 113.31 C291.22 114.11 290.94 114.91 290.66 115.74 C289.86 118.09 289.86 118.09 290 121 C290.99 121.66 291.98 122.32 293 123 C293 123.99 293 124.98 293 126 C292.36 126.29 291.72 126.58 291.06 126.88 C288.85 127.83 288.85 127.83 288 130 C285.94 130.62 285.94 130.62 284 131 C284.19 131.87 284.37 132.73 284.56 133.62 C285.01 137.05 284.72 139.64 284 143 C284.66 143.33 285.32 143.66 286 144 C286.6 146.65 286.6 146.65 287.06 149.94 C287.58 154.11 287.58 154.11 289 158 C292.95 157.88 296.9 157.76 300.85 157.63 C302.86 157.56 304.87 157.5 306.87 157.44 C308.76 157.38 308.76 157.38 310.68 157.32 C311.84 157.28 313 157.24 314.2 157.21 C316.95 157.18 316.95 157.18 319 156 C319.65 153.98 319.65 153.98 320 152 C320.66 152 321.32 152 322 152 C321.77 151.24 321.55 150.47 321.31 149.69 C321.21 148.8 321.11 147.91 321 147 C322.38 145.44 322.38 145.44 324 144 C324.36 142.67 324.69 141.34 325 140 C325.6 138.41 326.23 136.82 326.88 135.25 C328.18 132.04 329.44 128.82 330.62 125.56 C332 122 332 122 334 119 C334.68 116.67 335.34 114.34 336 112 C336.65 110.66 337.32 109.32 338 108 C338.33 107.01 338.66 106.02 339 105 C339.84 102.48 340.79 100.35 342 98 C343.5 94.63 344.9 91.31 346.06 87.81 C347.75 82.75 347.75 82.75 349 81 C353.62 79.05 357.93 78.68 362.88 78.66 C363.99 78.65 363.99 78.65 365.12 78.64 C366.66 78.63 368.21 78.63 369.76 78.63 C372.13 78.62 374.49 78.59 376.86 78.55 C378.36 78.54 379.87 78.54 381.38 78.54 C382.09 78.52 382.79 78.51 383.52 78.5 C387.05 78.53 388.7 78.76 391.48 81.03 C391.98 81.68 392.48 82.33 393 83 C392.34 83.33 391.68 83.66 391 84 C390.65 86.33 390.32 88.67 390 91 C389.34 91.99 388.68 92.98 388 94 C387.34 93.34 386.68 92.68 386 92 C385.64 93.44 385.28 94.87 384.94 96.31 C384.74 97.11 384.54 97.91 384.34 98.74 C383.8 101.16 383.8 101.16 385 104 C384.34 104.99 383.68 105.98 383 107 C381.1 111.44 379.58 116.02 378 120.57 C377 123 377 123 375 125 C373.13 128.17 371.98 130.22 372.06 133.94 C371.99 137.62 370.87 139.29 368.95 142.33 C367.73 144.47 367.47 146.6 367 149 C365.44 150.81 365.44 150.81 364 152 C364.33 152.99 364.66 153.98 365 155 C364.01 155 363.02 155 362 155 C362.33 155.99 362.66 156.98 363 158 C363.75 157.93 364.5 157.86 365.27 157.78 C374.3 157 383.26 156.88 392.31 156.94 C393.75 156.94 395.18 156.95 396.62 156.95 C400.08 156.96 403.54 156.98 407 157 C407.14 156.42 407.27 155.83 407.41 155.23 C408.14 152.48 409.16 149.88 410.18 147.23 C411.3 144.18 412.28 141.08 413.25 137.98 C414 136 414 136 416 133 C416.69 131.01 417.36 129.01 418 127 C420.65 119.17 420.65 119.17 423 118 C423.61 115.64 423.61 115.64 424 113 C424.44 110.75 424.44 110.75 425 109 C425.66 108.67 426.32 108.34 427 108 C427.68 106.11 427.68 106.11 428.12 103.94 C428.29 103.2 428.46 102.47 428.63 101.71 C428.75 101.15 428.88 100.58 429 100 C429.66 100 430.32 100 431 100 C431 98.35 431 96.7 431 95 C431.66 95 432.32 95 433 95 C432.77 94.46 432.55 93.93 432.31 93.38 C431.86 89.91 433.32 87.99 435 85 C435.31 84.26 435.62 83.51 435.94 82.75 C437.35 80.42 438.42 79.86 441 79 C447.46 78.08 453.88 80.67 459.02 84.51 C465.74 90.82 469.7 98.22 470.18 107.44 C470.23 110.93 470.28 114.43 470.3 117.93 C470.31 119.43 470.33 120.92 470.36 122.42 C470.56 132.54 470.41 141.63 463.69 149.81 C456.58 155.59 451.18 159 441.89 159.75 C439.99 159.81 439.99 159.81 439 161 C438.9 163.85 438.86 166.68 438.86 169.54 C438.86 170.45 438.86 171.35 438.85 172.29 C438.85 175.35 438.84 178.41 438.84 181.47 C438.84 183.66 438.83 185.84 438.83 188.03 C438.82 192.75 438.81 197.47 438.8 202.19 C438.79 209.65 438.77 217.12 438.75 224.58 C438.72 235.04 438.69 245.5 438.66 255.97 C438.66 256.63 438.66 257.3 438.66 257.98 C438.63 268.74 438.61 279.5 438.6 290.26 C438.58 301.3 438.55 312.34 438.51 323.39 C438.49 329.59 438.47 335.79 438.47 341.99 C438.47 347.83 438.45 353.66 438.43 359.5 C438.42 361.64 438.42 363.78 438.42 365.92 C438.43 368.85 438.41 371.77 438.39 374.7 C438.4 375.55 438.4 376.39 438.41 377.26 C438.32 385.08 435.77 390.73 431 397 C420.13 407.16 408.2 407.3 394.12 407.25 C392.51 407.26 390.89 407.26 389.28 407.26 C384.85 407.27 380.43 407.27 376.01 407.26 C371.23 407.26 366.45 407.26 361.67 407.27 C352.32 407.28 342.97 407.28 333.61 407.27 C326.01 407.27 318.4 407.27 310.8 407.27 C309.71 407.27 308.63 407.27 307.52 407.27 C305.32 407.27 303.11 407.27 300.91 407.27 C280.29 407.28 259.66 407.27 239.03 407.26 C221.34 407.25 203.65 407.25 185.97 407.26 C165.42 407.27 144.87 407.28 124.32 407.27 C122.12 407.27 119.93 407.27 117.74 407.27 C116.12 407.27 116.12 407.27 114.47 407.27 C106.88 407.26 99.29 407.27 91.7 407.27 C82.44 407.28 73.18 407.28 63.92 407.27 C59.2 407.26 54.48 407.26 49.76 407.27 C45.43 407.27 41.1 407.27 36.78 407.26 C35.22 407.26 33.66 407.26 32.1 407.26 C6.02 407.34 6.02 407.34 -2.06 400.31 C-2.59 399.9 -3.12 399.49 -3.66 399.07 C-7.63 395.84 -9.77 392.51 -12 388 C-12 387.34 -12 386.68 -12 386 C-12.66 385.01 -13.32 384.02 -14 383 C-14.19 380.16 -14.26 377.42 -14.23 374.57 C-14.23 373.7 -14.24 372.83 -14.24 371.94 C-14.24 369.01 -14.22 366.08 -14.21 363.15 C-14.21 361.06 -14.21 358.97 -14.21 356.87 C-14.2 352.36 -14.2 347.84 -14.18 343.33 C-14.16 336.19 -14.15 329.06 -14.14 321.93 C-14.13 310.65 -14.11 299.37 -14.09 288.09 C-14.04 267.88 -14.01 247.67 -13.99 227.46 C-13.98 220.37 -13.96 213.27 -13.95 206.17 C-13.94 201.77 -13.93 197.36 -13.92 192.95 C-13.92 190.9 -13.91 188.85 -13.91 186.8 C-13.9 184.01 -13.89 181.22 -13.89 178.43 C-13.89 177.61 -13.88 176.79 -13.88 175.95 C-13.88 172.7 -13.97 170.1 -15 167 C-15.04 164.67 -15.04 162.33 -15 160 C-16.3 159.79 -17.6 159.59 -18.94 159.38 C-27.41 157.47 -34.18 152.12 -39 145 C-43.47 136.91 -43.61 129.07 -43.5 120 C-43.52 118.7 -43.53 117.4 -43.55 116.05 C-43.51 105.79 -41.62 97.1 -35 89 C-32.99 87.34 -30.94 85.8 -28.8 84.3 C-26.88 82.99 -26.88 82.99 -25 81 C-25.5 80.01 -25.5 80.01 -26 79 C-26.68 78.77 -27.36 78.55 -28.06 78.31 C-35.15 75.15 -39.8 69.88 -42.97 62.88 C-47.31 50.72 -51.57 32.41 -46.31 20.06 C-45.58 18.69 -44.81 17.33 -44 16 C-43.67 15.38 -43.35 14.75 -43.01 14.11 C-38.66 6.8 -30.43 3.53 -22.56 1.25 C-20.71 0.81 -18.86 0.39 -17 0 C-15.95 -0.23 -14.9 -0.46 -13.82 -0.69 C-4.67 -2.47 -4.67 -2.47 0 0 Z M1 6 C2 8 2 8 2 8 Z M301 83 C302 86 302 86 302 86 Z M389 83 C388.67 84.65 388.34 86.3 388 88 C388.66 87.01 389.32 86.02 390 85 C389.67 84.34 389.34 83.68 389 83 Z M387 88 C386.67 88.99 386.34 89.98 386 91 C386.66 91 387.32 91 388 91 C387.67 90.01 387.34 89.02 387 88 Z M294 100 C293.67 101.32 293.34 102.64 293 104 C293.66 103.67 294.32 103.34 295 103 C294.67 102.01 294.34 101.02 294 100 Z M382 101 C383 104 383 104 383 104 Z M292 105 C293 107 293 107 293 107 Z M378 110 C379 113 379 113 379 113 Z M376 115 C377 117 377 117 377 117 Z M375 117 C376 119 376 119 376 119 Z M374 119 C375 121 375 121 375 121 Z M287 123 C286.67 124.32 286.34 125.64 286 127 C286.66 126.67 287.32 126.34 288 126 C287.67 125.01 287.34 124.02 287 123 Z M372 124 C373 127 373 127 373 127 Z M371 127 C372 129 372 129 372 129 Z M370 129 C371 131 371 131 371 131 Z M368 134 C369 136 369 136 369 136 Z M282 135 C283 137 283 137 283 137 Z M281 137 C282 140 282 140 282 140 Z M280 140 C281 142 281 142 281 142 Z M364 146 C365 148 365 148 365 148 Z " fill="#4E4039" transform="translate(426,245)"/>
<path d="M0 0 C1.27 -0.01 2.54 -0.01 3.85 -0.02 C5.26 -0.01 6.68 -0.01 8.09 -0.01 C9.59 -0.01 11.09 -0.01 12.58 -0.02 C16.71 -0.03 20.83 -0.03 24.96 -0.02 C29.4 -0.02 33.85 -0.03 38.29 -0.04 C47 -0.05 55.71 -0.05 64.42 -0.05 C71.5 -0.05 78.58 -0.05 85.65 -0.05 C87.16 -0.05 87.16 -0.05 88.7 -0.05 C90.74 -0.06 92.79 -0.06 94.83 -0.06 C114.01 -0.07 133.18 -0.07 152.35 -0.06 C169.91 -0.05 187.47 -0.07 205.03 -0.09 C223.04 -0.1 241.05 -0.11 259.07 -0.11 C269.19 -0.11 279.31 -0.11 289.43 -0.12 C298.04 -0.14 306.65 -0.14 315.26 -0.13 C319.66 -0.12 324.06 -0.12 328.46 -0.13 C332.48 -0.14 336.5 -0.14 340.52 -0.12 C341.98 -0.12 343.44 -0.12 344.9 -0.13 C346.87 -0.14 348.85 -0.13 350.82 -0.12 C352.47 -0.12 352.47 -0.12 354.15 -0.12 C356.85 0.25 356.85 0.25 358.71 1.58 C360.44 4.12 360.11 6.28 359.85 9.25 C357.92 11.18 354.41 10.67 351.78 10.81 C351.03 10.85 350.28 10.9 349.5 10.94 C338.97 11.47 328.42 11.38 317.87 11.35 C315.61 11.35 313.35 11.35 311.09 11.35 C305.19 11.34 299.29 11.33 293.4 11.32 C287.36 11.31 281.32 11.31 275.27 11.3 C263.47 11.29 251.66 11.28 239.85 11.25 C239.86 12.32 239.86 12.32 239.87 13.4 C239.93 20.06 239.97 26.73 240 33.39 C240.02 36.82 240.04 40.25 240.07 43.68 C240.11 47.61 240.13 51.55 240.14 55.49 C240.16 56.72 240.17 57.96 240.19 59.22 C240.19 60.94 240.19 60.94 240.19 62.68 C240.2 64.19 240.2 64.19 240.21 65.73 C239.85 68.25 239.85 68.25 238.49 70.12 C236.85 71.25 236.85 71.25 234.28 71 C231.85 70.25 231.85 70.25 229.85 69.25 C229.85 50.44 229.85 31.63 229.85 12.25 C226.93 11.28 225.08 11.13 222.04 11.13 C221.06 11.13 220.07 11.13 219.05 11.13 C217.97 11.13 216.88 11.14 215.77 11.14 C214.62 11.14 213.48 11.14 212.31 11.14 C208.52 11.14 204.74 11.15 200.96 11.16 C198.34 11.16 195.72 11.16 193.1 11.16 C186.91 11.16 180.72 11.17 174.52 11.18 C167.47 11.19 160.42 11.2 153.37 11.2 C138.86 11.21 124.35 11.23 109.85 11.25 C109.86 12.34 109.86 12.34 109.87 13.44 C109.93 20.24 109.97 27.04 110 33.84 C110.02 37.33 110.04 40.83 110.07 44.32 C110.11 48.34 110.13 52.36 110.14 56.37 C110.16 57.63 110.17 58.89 110.19 60.18 C110.19 61.35 110.19 62.51 110.19 63.7 C110.2 65.24 110.2 65.24 110.21 66.81 C110.09 67.62 109.97 68.42 109.85 69.25 C106.85 71.25 106.85 71.25 104.28 71 C101.85 70.25 101.85 70.25 99.85 68.25 C98.79 61.53 98.71 54.89 98.75 48.09 C98.75 47.06 98.75 46.03 98.75 44.97 C98.76 41.71 98.77 38.45 98.78 35.19 C98.79 32.97 98.79 30.75 98.8 28.52 C98.81 23.1 98.83 17.68 98.85 12.25 C97.54 12.25 96.24 12.24 94.89 12.23 C82.61 12.15 70.32 12.06 58.04 11.97 C51.72 11.92 45.4 11.87 39.09 11.83 C32.99 11.8 26.9 11.75 20.8 11.7 C18.47 11.68 16.15 11.66 13.82 11.65 C10.57 11.63 7.31 11.61 4.05 11.57 C3.09 11.57 2.13 11.57 1.13 11.57 C-3.39 11.51 -7.05 11.41 -11.15 9.25 C-10.9 5.88 -10.9 5.88 -10.15 2.25 C-6.94 -0.09 -3.88 0 0 0 Z " fill="#FCFCFC" transform="translate(464.15291690826416,562.7455244064331)"/>
<path d="M0 0 C1.27 -0.01 2.55 -0.02 3.86 -0.02 C5.28 -0.02 6.69 -0.01 8.11 -0 C9.61 -0.01 11.12 -0.01 12.62 -0.02 C16.75 -0.03 20.89 -0.02 25.03 -0.01 C29.48 -0.01 33.94 -0.02 38.4 -0.03 C47.13 -0.04 55.87 -0.04 64.6 -0.03 C71.7 -0.02 78.79 -0.02 85.89 -0.02 C86.9 -0.02 87.91 -0.02 88.95 -0.03 C90.99 -0.03 93.04 -0.03 95.09 -0.03 C114.32 -0.04 133.55 -0.03 152.78 -0.01 C169.29 0 185.8 0 202.31 -0.01 C221.47 -0.03 240.63 -0.04 259.78 -0.03 C261.83 -0.03 263.87 -0.02 265.91 -0.02 C267.42 -0.02 267.42 -0.02 268.95 -0.02 C276.04 -0.02 283.13 -0.02 290.23 -0.03 C298.86 -0.04 307.5 -0.04 316.13 -0.02 C320.54 -0.01 324.95 -0.01 329.36 -0.02 C333.4 -0.03 337.43 -0.02 341.46 -0.01 C342.92 -0.01 344.39 -0.01 345.85 -0.01 C347.83 -0.02 349.81 -0.01 351.79 0 C352.89 0 353.99 0 355.13 0 C357.83 0.38 357.83 0.38 359.69 1.71 C361.45 4.27 361.15 6.36 360.83 9.38 C358.12 12.09 356.71 11.63 352.91 11.63 C351.65 11.64 350.38 11.64 349.07 11.65 C347.65 11.65 346.23 11.64 344.81 11.64 C343.31 11.64 341.81 11.65 340.31 11.65 C336.17 11.66 332.04 11.66 327.9 11.65 C323.44 11.65 318.99 11.66 314.53 11.67 C305.8 11.68 297.07 11.68 288.33 11.68 C281.24 11.68 274.14 11.68 267.04 11.68 C265.53 11.68 265.53 11.68 263.99 11.69 C261.94 11.69 259.89 11.69 257.84 11.69 C238.61 11.7 219.38 11.7 200.15 11.69 C182.54 11.69 164.94 11.7 147.33 11.72 C129.27 11.74 111.21 11.74 93.15 11.74 C83 11.74 72.86 11.74 62.71 11.76 C54.07 11.77 45.43 11.77 36.79 11.76 C32.38 11.75 27.97 11.75 23.57 11.76 C19.53 11.77 15.5 11.77 11.46 11.76 C10 11.75 8.54 11.76 7.08 11.76 C5.09 11.77 3.11 11.76 1.13 11.75 C-0.53 11.75 -0.53 11.75 -2.22 11.75 C-5.58 11.33 -7.48 10.43 -10.17 8.38 C-10.73 5.88 -10.73 5.88 -10.17 3.38 C-6.95 0.19 -4.44 0 0 0 Z " fill="#FCFBFB" transform="translate(463.16853427886963,452.6224765777588)"/>
<path d="M0 0 C1.68 0 1.68 0 3.39 0 C4.67 -0 5.96 -0.01 7.28 -0.01 C8.72 -0 10.16 0 11.6 0.01 C13.12 0.01 14.64 0.01 16.16 0 C20.35 -0 24.54 0.01 28.74 0.02 C33.25 0.02 37.76 0.02 42.28 0.02 C50.1 0.02 57.93 0.03 65.76 0.04 C77.07 0.05 88.39 0.06 99.7 0.06 C118.06 0.07 136.41 0.08 154.77 0.1 C172.6 0.12 190.44 0.13 208.28 0.14 C209.92 0.14 209.92 0.14 211.6 0.14 C217.12 0.14 222.63 0.15 228.14 0.15 C273.89 0.17 319.64 0.2 365.39 0.25 C366.37 6.3 366.37 6.3 366.39 8.25 C363.68 10.96 362.26 10.5 358.46 10.5 C356.55 10.51 356.55 10.51 354.6 10.52 C353.17 10.51 351.75 10.51 350.32 10.5 C348.82 10.5 347.31 10.51 345.81 10.51 C341.66 10.52 337.51 10.52 333.36 10.51 C328.89 10.51 324.42 10.51 319.95 10.52 C311.19 10.53 302.43 10.52 293.67 10.52 C286.55 10.51 279.43 10.51 272.31 10.52 C271.3 10.52 270.29 10.52 269.25 10.52 C267.19 10.52 265.14 10.52 263.08 10.52 C243.79 10.52 224.5 10.52 205.21 10.51 C188.65 10.5 172.09 10.5 155.53 10.51 C136.31 10.52 117.1 10.52 97.88 10.52 C95.84 10.52 93.79 10.52 91.74 10.52 C90.23 10.52 90.23 10.52 88.69 10.52 C81.57 10.51 74.46 10.52 67.35 10.52 C58.69 10.53 50.02 10.53 41.35 10.51 C36.93 10.51 32.51 10.51 28.08 10.51 C24.04 10.52 19.99 10.52 15.94 10.51 C14.48 10.5 13.01 10.5 11.54 10.51 C9.56 10.52 7.57 10.51 5.58 10.5 C4.47 10.5 3.37 10.5 2.23 10.5 C-0.58 10.25 -2.23 9.7 -4.61 8.25 C-4.73 5.37 -4.73 5.37 -4.61 2.25 C-2.61 0.25 -2.61 0.25 0 0 Z " fill="#FDFDFD" transform="translate(457.60802376270294,508.7516030073166)"/>
<path d="M0 0 C6.23 -0.05 12.46 -0.09 18.69 -0.11 C20.81 -0.12 22.93 -0.13 25.05 -0.15 C28.09 -0.18 31.14 -0.19 34.18 -0.2 C35.13 -0.21 36.08 -0.22 37.06 -0.23 C37.95 -0.23 38.83 -0.23 39.73 -0.23 C40.51 -0.23 41.29 -0.24 42.09 -0.24 C44 0 44 0 46 2 C42.13 12.47 38.1 22.86 33.88 33.19 C33.32 34.56 32.76 35.93 32.2 37.3 C26.52 51.22 20.76 65.11 15 79 C-0.18 79 -15.36 79 -31 79 C-29.51 70.08 -26.06 62.14 -22.19 54 C-19.61 48.53 -17.43 42.98 -15.31 37.31 C-10.61 24.71 -5.31 12.36 0 0 Z " fill="#FCFCFC" transform="translate(467,325)"/>
<path d="M0 0 C14.85 0 29.7 0 45 0 C46.46 4.39 44.37 7.35 42.56 11.38 C39.46 18.5 36.54 25.66 33.81 32.94 C26.65 51.94 26.65 51.94 23 58.88 C20.49 63.71 18.83 68.88 17.05 74.02 C16 77 16 77 15 79 C0.15 79 -14.7 79 -30 79 C-31.15 74.39 -30.61 73.22 -28.88 68.94 C-28.4 67.77 -27.93 66.61 -27.45 65.41 C-25.86 61.66 -24.17 57.97 -22.45 54.29 C-20.13 49.03 -18.04 43.69 -15.94 38.34 C-14.35 34.32 -12.72 30.34 -10.95 26.39 C-8.79 21.6 -6.99 16.71 -5.2 11.78 C-4.96 11.11 -4.72 10.45 -4.46 9.77 C-4.25 9.19 -4.04 8.61 -3.83 8.01 C-2.7 5.27 -1.32 2.65 0 0 Z " fill="#FDFDFD" transform="translate(555,325)"/>
<path d="M0 0 C0.78 0 1.56 0 2.36 0.01 C3.24 0.01 4.12 0.01 5.03 0.01 C5.99 0.01 6.95 0.02 7.93 0.02 C9.39 0.02 9.39 0.02 10.89 0.03 C14.02 0.03 17.14 0.05 20.27 0.06 C22.39 0.06 24.5 0.07 26.62 0.07 C31.81 0.08 37.01 0.1 42.21 0.12 C43.76 4.85 42.39 8.06 40.49 12.41 C40.2 13.11 39.9 13.81 39.6 14.53 C38.65 16.8 37.68 19.05 36.71 21.31 C35.73 23.63 34.75 25.95 33.77 28.28 C33.13 29.8 32.49 31.33 31.84 32.85 C29.5 38.38 27.28 43.94 25.15 49.56 C23.41 54.13 21.58 58.62 19.52 63.06 C17.13 68.29 15.18 73.71 13.21 79.12 C-1.97 79.12 -17.15 79.12 -32.79 79.12 C-33.12 78.46 -33.45 77.8 -33.79 77.12 C-32.99 74.75 -32.13 72.49 -31.17 70.18 C-30.92 69.57 -30.67 68.95 -30.41 68.32 C-28.85 64.52 -27.18 60.78 -25.44 57.05 C-22.61 50.85 -20.17 44.5 -17.74 38.12 C-13.99 28.28 -10.2 18.45 -6.1 8.75 C-5.78 7.97 -5.45 7.19 -5.11 6.39 C-2.46 0.17 -2.46 0.17 0 0 Z " fill="#FDFDFD" transform="translate(644.7906646728516,324.87974548339844)"/>
<path d="M0 0 C8.34 0.6 15.69 3.05 21.44 9.37 C25.98 15.29 28.18 20.63 29.07 28.05 C30.06 29.04 30.06 29.04 31.07 30.05 C31.11 31.72 31.11 33.39 31.07 35.05 C31.4 35.38 31.73 35.71 32.07 36.05 C33.8 44.55 33.68 53.56 32.07 62.05 C31.41 62.05 30.75 62.05 30.07 62.05 C30.03 62.94 29.98 63.83 29.94 64.74 C28.78 69.12 26.62 70.37 23.07 73.05 C22.41 74.04 21.75 75.03 21.07 76.05 C17.94 76.74 17.94 76.74 15.07 77.05 C15.07 77.71 15.07 78.37 15.07 79.05 C11.88 79.87 11.88 79.87 8.07 80.05 C5.13 77.8 5.13 77.8 3.07 75.05 C3.07 74.06 3.07 73.07 3.07 72.05 C2.41 72.05 1.75 72.05 1.07 72.05 C-0.65 69.54 -2.24 67.03 -3.81 64.43 C-4.68 63 -5.55 61.57 -6.43 60.14 C-6.85 59.45 -7.27 58.75 -7.7 58.04 C-8.83 56.22 -10.02 54.47 -11.25 52.72 C-12.93 50.05 -12.93 50.05 -12.93 47.05 C-14.42 46.56 -14.42 46.56 -15.93 46.05 C-17.11 44.3 -17.11 44.3 -18.25 42.05 C-20.35 38.08 -22.66 34.38 -25.19 30.66 C-27.78 26.79 -30.28 22.86 -32.77 18.93 C-34.34 16.47 -35.92 14.07 -37.7 11.76 C-38.93 10.05 -38.93 10.05 -38.93 8.05 C-36.39 7.38 -33.85 6.71 -31.31 6.05 C-30.6 5.86 -29.88 5.67 -29.15 5.48 C-24.94 4.4 -21.3 4 -16.93 4.05 C-14.82 3.45 -14.82 3.45 -12.93 2.55 C-9.46 1.13 -6.71 0.87 -2.93 1.05 C-1.93 0.05 -1.93 0.05 0 0 Z " fill="#4E4038" transform="translate(852.93359375,154.9453125)"/>
<path d="M0 0 C1.21 0.03 1.21 0.03 2.44 0.06 C2.44 0.72 2.44 1.38 2.44 2.06 C3.43 2.06 4.42 2.06 5.44 2.06 C5.87 2.9 5.87 2.9 6.32 3.75 C8.41 7.64 10.53 11.33 13.25 14.81 C16.71 19.27 19.56 24.04 22.47 28.86 C24.66 32.42 26.99 35.85 29.41 39.26 C30.44 41.06 30.44 41.06 30.44 44.06 C31.92 44.56 31.92 44.56 33.44 45.06 C34.61 46.59 34.61 46.59 35.62 48.44 C35.97 49.04 36.31 49.65 36.67 50.27 C37.44 52.06 37.44 52.06 37.44 55.06 C38.1 55.06 38.76 55.06 39.44 55.06 C40.95 57.18 40.95 57.18 42.56 59.94 C43.1 60.84 43.64 61.75 44.2 62.68 C45.44 65.06 45.44 65.06 45.44 67.06 C46.1 67.06 46.76 67.06 47.44 67.06 C48.1 68.71 48.76 70.36 49.44 72.06 C45.81 72.39 42.18 72.72 38.44 73.06 C38.44 73.72 38.44 74.38 38.44 75.06 C23.84 77.36 23.84 77.36 16.44 77.06 C16.44 77.72 16.44 78.38 16.44 79.06 C9.28 79.55 9.28 79.55 5.62 77.44 C2.88 74.46 0.44 71.25 0.44 67.06 C-0.55 66.57 -0.55 66.57 -1.56 66.06 C-2.57 64.7 -3.52 63.3 -4.44 61.88 C-6.23 59.11 -8.04 56.38 -9.94 53.69 C-11.56 51.06 -11.56 51.06 -11.56 48.06 C-12.22 48.06 -12.88 48.06 -13.56 48.06 C-14.78 46.31 -14.78 46.31 -16.17 43.83 C-18.51 39.8 -20.96 35.9 -23.58 32.05 C-24.27 31.02 -24.97 30 -25.68 28.95 C-27.11 26.84 -28.55 24.73 -29.99 22.63 C-30.68 21.61 -31.37 20.6 -32.08 19.55 C-32.7 18.64 -33.32 17.73 -33.96 16.79 C-35.63 13.94 -36.63 11.22 -37.56 8.06 C-30.88 5.83 -24.66 3.9 -17.56 4.06 C-15.56 3.41 -13.56 2.74 -11.56 2.06 C-10.13 1.85 -8.69 1.66 -7.25 1.5 C-3.78 1.09 -3.17 0.08 0 0 Z M39.44 59.06 C40.44 61.06 40.44 61.06 40.44 61.06 Z " fill="#4E4038" transform="translate(765.5625,172.9375)"/>
<path d="M0 0 C0.99 0.66 1.98 1.32 3 2 C3 2.66 3 3.32 3 4 C3.99 4.33 4.98 4.66 6 5 C6.67 6.66 7.34 8.33 8 10 C8.6 10.58 9.2 11.16 9.81 11.75 C12.52 14.53 14.06 17.55 15.85 20.98 C16.96 23.14 16.96 23.14 19 25 C19 25.99 19 26.98 19 28 C19.66 28.33 20.32 28.66 21 29 C21.5 29.99 21.5 29.99 22 31 C22.64 31.76 23.28 32.53 23.94 33.31 C25.9 35.88 26.83 38.03 28 41 C29.52 42.77 29.52 42.77 31 44 C30.67 44.99 30.34 45.98 30 47 C30.99 46.67 31.98 46.34 33 46 C33.33 46.99 33.66 47.98 34 49 C33.5 49.99 33.5 49.99 33 51 C33.99 51 34.98 51 36 51 C38.36 53.53 39 54.47 39 58 C39.66 58.33 40.32 58.66 41 59 C41 59.99 41 60.98 41 62 C41.66 62 42.32 62 43 62 C43.67 63.29 44.34 64.58 45 65.88 C45.37 66.59 45.74 67.31 46.12 68.05 C47 70 47 70 47 72 C46.21 72.05 45.43 72.1 44.62 72.15 C38.78 72.56 33.61 73.3 28 75 C24.83 75.56 21.66 76.06 18.48 76.54 C16.07 76.75 16.07 76.75 15 78 C10.6 78.54 7.12 78.79 3.44 76.19 C2 74 2 74 2 71 C1.34 71 0.68 71 0 71 C0 70.01 0 69.02 0 68 C-0.66 68 -1.32 68 -2 68 C-2 67.01 -2 66.02 -2 65 C-2.66 65 -3.32 65 -4 65 C-5.48 62.92 -6.81 60.87 -8.12 58.69 C-8.68 57.8 -8.68 57.8 -9.25 56.88 C-12 52.38 -12 52.38 -12 49 C-13.49 48.5 -13.49 48.5 -15 48 C-16.17 46.48 -16.17 46.48 -17.19 44.62 C-17.53 44.02 -17.88 43.41 -18.23 42.79 C-19 41 -19 41 -19 38 C-20.49 37.5 -20.49 37.5 -22 37 C-22.5 34.53 -22.5 34.53 -23 32 C-23.66 32 -24.32 32 -25 32 C-26.57 29.8 -28.02 27.61 -29.44 25.31 C-29.83 24.69 -30.23 24.06 -30.63 23.42 C-31.77 21.62 -32.88 19.81 -34 18 C-34.59 17.07 -35.18 16.13 -35.79 15.17 C-37 13 -37 13 -37 11 C-37.66 11 -38.32 11 -39 11 C-39.33 9.35 -39.66 7.7 -40 6 C-39.43 6.19 -38.86 6.39 -38.27 6.59 C-35.53 7.08 -34.25 6.59 -31.69 5.56 C-27.6 4.08 -24.36 4 -20 4 C-17.65 3.36 -15.4 2.59 -13.11 1.75 C-8.63 0.16 -4.79 -0.26 0 0 Z " fill="#4D3F37" transform="translate(681,191)"/>
<path d="M0 0 C2.25 2.92 3 4.3 3 8 C3.99 8.33 4.98 8.66 6 9 C7.47 10.94 7.47 10.94 9.06 13.56 C9.98 15.06 9.98 15.06 10.92 16.58 C11.26 17.13 11.59 17.68 11.93 18.24 C13.87 21.43 15.84 24.59 17.81 27.75 C18.23 28.42 18.65 29.1 19.08 29.8 C22.46 35.21 25.98 40.52 29.6 45.78 C32.1 49.45 34.18 53.19 36.09 57.2 C37.46 59.92 38.91 61.92 41.19 63.94 C41.79 64.62 42.38 65.3 43 66 C42.61 68.13 42.61 68.13 42 70 C41.25 70.14 40.5 70.28 39.72 70.43 C36.29 71.07 32.87 71.72 29.44 72.38 C28.26 72.6 27.07 72.82 25.86 73.05 C18.91 74.33 18.91 74.33 12.1 76.16 C8.35 77.17 5.85 77.72 2 77 C-0.34 74.61 -1.8 71.81 -3.38 68.88 C-4.33 67.21 -5.29 65.54 -6.24 63.87 C-6.71 63.04 -7.17 62.21 -7.66 61.35 C-9.49 58.14 -11.48 55.04 -13.5 51.94 C-14.22 50.83 -14.93 49.73 -15.67 48.59 C-16.91 46.68 -18.15 44.77 -19.39 42.86 C-20.38 41.35 -21.36 39.83 -22.35 38.32 C-23.29 36.86 -24.24 35.4 -25.2 33.95 C-33 21.94 -33 21.94 -33 19 C-33.66 19 -34.32 19 -35 19 C-36.45 17.26 -37.81 15.46 -39.12 13.62 C-39.85 12.63 -40.57 11.63 -41.32 10.6 C-43 8 -43 8 -43 6 C-41.21 5.61 -41.21 5.61 -39.39 5.2 C-35.32 4.3 -31.26 3.36 -27.21 2.42 C-24.74 1.86 -22.28 1.31 -19.81 0.75 C-18.57 0.46 -17.32 0.16 -16.04 -0.14 C-14.24 -0.54 -14.24 -0.54 -12.39 -0.95 C-10.77 -1.33 -10.77 -1.33 -9.11 -1.71 C-5.49 -2.05 -3.3 -1.48 0 0 Z M-1 2 C0 4 0 4 0 4 Z M10 31 C9.11 35.06 8.79 37.43 10.25 41.38 C11.79 44.27 11.79 44.27 15 45 C18.21 48.28 19.78 49.98 20.75 54.5 C22.58 59.62 26.26 61.59 31 64 C33.18 64.67 33.18 64.67 35 65 C34.62 59.57 32.97 57.6 29 54 C25.74 50.29 23.53 46.38 21.44 41.94 C18.76 36.13 18.76 36.13 15 31 C12.37 30.67 12.37 30.67 10 31 Z M7 33 C7.33 33.99 7.66 34.98 8 36 C8 35.01 8 34.02 8 33 C7.67 33 7.34 33 7 33 Z " fill="#2C1612" transform="translate(598,210)"/>
<path d="M0 0 C1.73 2.45 1.73 2.45 3.62 5.69 C4.33 6.88 5.04 8.06 5.75 9.25 C6.12 9.87 6.49 10.48 6.87 11.12 C8.71 14.18 10.63 17.19 12.56 20.19 C13.13 21.07 13.13 21.07 13.71 21.97 C16.47 26.23 19.33 30.39 22.27 34.53 C25.6 39.29 28.79 44.15 32 49 C33.75 51.63 35.5 54.25 37.25 56.88 C38.07 58.1 38.89 59.33 39.7 60.55 C40.09 61.13 40.47 61.7 40.86 62.29 C42.57 64.86 44.29 67.43 46 70 C42.74 71.83 39.66 72.63 36 73.38 C34.78 73.63 33.55 73.88 32.29 74.14 C31.61 74.27 30.94 74.41 30.24 74.55 C27.75 75.05 25.26 75.57 22.77 76.08 C20.97 76.45 19.17 76.82 17.38 77.19 C16.51 77.37 15.65 77.55 14.75 77.73 C13.94 77.9 13.12 78.06 12.27 78.23 C11.55 78.38 10.82 78.53 10.07 78.68 C8 79 8 79 4 79 C2.39 77.09 2.39 77.09 0.83 74.43 C0.25 73.45 -0.33 72.48 -0.92 71.48 C-1.53 70.44 -2.13 69.39 -2.75 68.31 C-4.01 66.18 -5.27 64.05 -6.54 61.92 C-7.14 60.89 -7.74 59.86 -8.36 58.8 C-13.92 49.29 -19.9 40.13 -26.18 31.09 C-29.01 27 -31.8 22.88 -34.56 18.75 C-34.98 18.13 -35.4 17.51 -35.83 16.87 C-37.75 13.99 -39.56 11.15 -41 8 C-31.93 5.43 -22.94 3.32 -13.66 1.71 C-9.95 1.05 -9.95 1.05 -6.22 -0.15 C-3 -1 -3 -1 0 0 Z M-2 7 C-2.99 7.5 -2.99 7.5 -4 8 C-3.38 11.33 -2.18 13.53 -0.19 16.25 C0.31 16.96 0.82 17.66 1.33 18.39 C3.09 20.46 3.09 20.46 7 20 C6.55 15.13 5.42 12.51 2 9 C-0 7.58 -0 7.58 -2 7 Z M8 20 C6.21 27.91 8.43 33.86 12 41 C12.66 41 13.32 41 14 41 C14.06 41.9 14.06 41.9 14.12 42.81 C14.87 45.32 14.87 45.32 17.88 46.75 C20.9 48.19 20.9 48.19 24 48 C23.28 45.98 23.28 45.98 22 44 C19.96 43.35 19.96 43.35 18 43 C18.07 42.02 18.07 42.02 18.14 41.02 C18.38 35.14 18.12 31.59 14 27 C13.01 26.67 12.02 26.34 11 26 C9.81 22.94 9.81 22.94 9 20 C8.67 20 8.34 20 8 20 Z M-13 31 C-13.88 33.2 -13.88 33.2 -14 36 C-12.75 38.05 -11.4 40.04 -10 42 C-9.27 43.04 -8.54 44.07 -7.78 45.14 C-7.03 46.17 -6.28 47.19 -5.5 48.25 C-4.75 49.29 -3.99 50.32 -3.22 51.39 C-1.17 53.8 0.09 54.92 3 56 C6.35 53.77 7.82 52.74 8.81 48.75 C8.91 47.39 8.91 47.39 9 46 C8.32 45.61 7.64 45.22 6.94 44.81 C2.36 41.99 -1.86 39.17 -5.62 35.31 C-8.03 32.97 -9.83 32 -13 31 Z " fill="#000000" transform="translate(510,226)"/>
<path d="M0 0 C0.16 4.9 0.22 7.64 -2 12 C-4 19.99 -4.18 27.52 -3.02 35.62 C-2.8 37.57 -2.8 37.57 -3 41 C-5.48 43.46 -5.48 43.46 -8 45 C-12.63 43.37 -14.98 41.9 -17.31 37.56 C-18.92 34.76 -18.92 34.76 -22.12 32.94 C-25 31 -25 31 -25.75 28.81 C-25.83 28.21 -25.91 27.62 -26 27 C-26.66 26.67 -27.32 26.34 -28 26 C-30.3 21.39 -31.91 17.22 -32 12 C-30.38 8.62 -30.38 8.62 -28 6 C-25.25 5.12 -25.25 5.12 -23 5 C-23 4.34 -23 3.68 -23 3 C-23.66 2.67 -24.32 2.34 -25 2 C-21.96 1.27 -18.92 0.57 -15.88 -0.12 C-15.02 -0.33 -14.16 -0.54 -13.28 -0.75 C-8.21 -1.89 -4.89 -2.29 0 0 Z " fill="#4F4139" transform="translate(598,210)"/>
<path d="M0 0 C1.64 2.14 1.64 2.14 3.25 4.81 C3.79 5.69 4.33 6.56 4.89 7.46 C6 10 6 10 5.67 12.32 C5.34 13.15 5.34 13.15 5 14 C3.89 12.79 3.89 12.79 2.75 11.56 C0.11 9.1 -0.67 8.62 -4 8 C-3.21 9.46 -2.42 10.92 -1.62 12.38 C-1.18 13.19 -0.74 14 -0.29 14.84 C0.94 17.11 0.94 17.11 3 19 C4 21.33 5 23.67 6 26 C6.66 26.66 7.32 27.32 8 28 C9.47 31.59 10.53 35.15 11 39 C9.19 42.19 9.19 42.19 7 44 C2.27 43.58 -0.9 41.49 -4 38 C-5.08 35.7 -6.08 33.37 -7 31 C-10.43 24.03 -14.43 19.94 -21.85 17.36 C-24.64 16.45 -27.45 15.58 -30.28 14.79 C-34.24 13.66 -37.66 12.45 -41 10 C-41 9.34 -41 8.68 -41 8 C-31.93 5.43 -22.94 3.32 -13.66 1.71 C-9.95 1.05 -9.95 1.05 -6.22 -0.15 C-3 -1 -3 -1 0 0 Z " fill="#2D1713" transform="translate(510,226)"/>
<path d="M0 0 C0 0.66 0 1.32 0 2 C-0.76 2.23 -1.53 2.45 -2.31 2.69 C-5.69 4.34 -6.61 5.52 -8 9 C-7.78 13.23 -7.36 15.46 -5 19 C-5 20.32 -5 21.64 -5 23 C-4.01 23.33 -3.02 23.66 -2 24 C-1.73 24.76 -1.46 25.53 -1.19 26.31 C-0.21 29.25 -0.21 29.25 2.81 30.56 C7.16 33.12 8.08 37.66 9.78 42.16 C11.26 45.61 13.15 47.59 16 50 C16.68 50.91 17.36 51.81 18.06 52.75 C19.8 55.06 19.8 55.06 22 56 C24.78 56 25.91 54.74 28 53 C28.66 53 29.32 53 30 53 C30.25 55.4 30.48 57.79 30.69 60.19 C30.76 60.86 30.83 61.53 30.91 62.23 C31.28 66.76 30.92 69.45 28 73 C27.01 73.33 26.02 73.66 25 74 C24.71 73.53 24.43 73.06 24.13 72.57 C17.45 61.56 10.64 50.65 3.61 39.86 C2.62 38.35 1.64 36.83 0.65 35.32 C-0.29 33.86 -1.24 32.4 -2.2 30.95 C-10 18.94 -10 18.94 -10 16 C-10.66 16 -11.32 16 -12 16 C-13.45 14.26 -14.81 12.46 -16.12 10.62 C-16.85 9.63 -17.57 8.63 -18.32 7.6 C-20 5 -20 5 -20 3 C-19.16 2.82 -19.16 2.82 -18.31 2.63 C-17.55 2.47 -16.79 2.3 -16 2.12 C-15.18 1.95 -14.37 1.77 -13.52 1.58 C-11.21 1.05 -8.92 0.44 -6.62 -0.19 C-3 -1 -3 -1 0 0 Z " fill="#020101" transform="translate(575,213)"/>
<path d="M0 0 C4.57 0.43 7.99 1.8 12 4 C13.32 3.01 14.64 2.02 16 1 C23 9.45 23 9.45 23 15 C24.32 15.66 25.64 16.32 27 17 C27 17.99 27 18.98 27 20 C25.73 20.27 25.73 20.27 24.43 20.55 C23.26 20.8 22.08 21.05 20.88 21.31 C18.97 21.72 18.97 21.72 17.03 22.13 C14.39 22.7 11.76 23.28 9.13 23.87 C7.91 24.14 6.69 24.41 5.44 24.69 C4.32 24.94 3.21 25.19 2.06 25.45 C-0.71 25.95 -3.19 26.11 -6 26 C-4.73 23.96 -3.39 21.96 -2 20 C-1.34 20 -0.68 20 0 20 C-0.05 19.14 -0.05 19.14 -0.11 18.27 C-0.26 15.7 -0.41 13.13 -0.56 10.56 C-0.62 9.66 -0.67 8.77 -0.73 7.84 C-0.78 6.99 -0.83 6.13 -0.88 5.25 C-0.95 4.07 -0.95 4.07 -1.02 2.86 C-1 1 -1 1 0 0 Z " fill="#2D1713" transform="translate(525,278)"/>
<path d="M0 0 C3.71 1.24 4.07 2.27 6.06 5.56 C6.68 6.56 7.29 7.56 7.92 8.58 C8.26 9.13 8.59 9.68 8.93 10.24 C10.87 13.43 12.84 16.59 14.81 19.75 C15.23 20.42 15.65 21.1 16.08 21.8 C19.46 27.21 22.98 32.52 26.6 37.78 C34 48.65 34 48.65 34 53 C32.68 52.67 31.36 52.34 30 52 C29.92 51.38 29.84 50.76 29.75 50.12 C28.75 47.3 27.64 47.28 25 46 C21.68 42.32 19.49 38.32 17.38 33.88 C15.73 30.46 14.11 27.17 12 24 C9.44 23.27 9.44 23.27 7 23 C7 24.65 7 26.3 7 28 C1.12 23.25 1.12 23.25 0 21 C-0.19 18 -0.19 18 0 15 C2.14 12.86 3.13 12.57 6 12 C5.57 11.3 5.13 10.6 4.69 9.88 C4.13 8.97 3.57 8.06 3 7.12 C2.44 6.22 1.89 5.32 1.31 4.38 C0 2 0 2 0 0 Z " fill="#000000" transform="translate(601,218)"/>
<path d="M0 0 C14.55 -0.05 29.1 -0.08 43.65 -0.1 C50.41 -0.11 57.17 -0.13 63.92 -0.15 C70.44 -0.17 76.95 -0.18 83.47 -0.19 C85.96 -0.19 88.45 -0.2 90.94 -0.21 C94.42 -0.23 97.9 -0.23 101.38 -0.23 C102.41 -0.23 103.45 -0.24 104.52 -0.25 C105.47 -0.25 106.41 -0.24 107.39 -0.24 C108.21 -0.24 109.03 -0.24 109.88 -0.25 C112 0 112 0 115 2 C114 3 114 3 112.07 3.12 C111.21 3.12 110.36 3.12 109.48 3.12 C108.01 3.12 108.01 3.12 106.51 3.12 C105.43 3.12 104.35 3.12 103.24 3.11 C101.54 3.11 101.54 3.11 99.81 3.11 C96.05 3.11 92.29 3.11 88.53 3.1 C85.93 3.1 83.33 3.09 80.73 3.09 C74.57 3.09 68.42 3.08 62.26 3.07 C54.57 3.06 46.88 3.05 39.19 3.05 C25.46 3.04 11.73 3.02 -2 3 C-2 21.15 -2 39.3 -2 58 C-2.33 58 -2.66 58 -3 58 C-3 39.52 -3 21.04 -3 2 C-2.01 2 -1.02 2 0 2 C0 1.34 0 0.68 0 0 Z " fill="#36231E" transform="translate(708,573)"/>
<path d="M0 0 C1.17 0.24 1.17 0.24 2.36 0.49 C7 1.14 11.54 1.17 16.21 1.19 C17.23 1.2 18.24 1.21 19.28 1.21 C21.48 1.23 23.67 1.25 25.86 1.26 C29.33 1.28 32.8 1.31 36.26 1.34 C44.87 1.41 53.47 1.47 62.07 1.53 C69.35 1.58 76.63 1.63 83.91 1.69 C87.34 1.72 90.76 1.74 94.18 1.76 C96.27 1.78 98.35 1.79 100.43 1.81 C101.87 1.82 101.87 1.82 103.34 1.82 C104.21 1.83 105.08 1.84 105.97 1.85 C106.73 1.85 107.49 1.86 108.27 1.86 C110 2 110 2 111 3 C111.09 4.34 111.11 5.69 111.1 7.04 C111.09 8.25 111.09 8.25 111.09 9.49 C111.08 10.76 111.08 10.76 111.06 12.06 C111.06 12.92 111.05 13.77 111.05 14.65 C111.04 16.77 111.02 18.88 111 21 C110.67 21 110.34 21 110 21 C110 15.72 110 10.44 110 5 C108.68 4.99 107.36 4.98 106 4.97 C93.56 4.87 81.13 4.77 68.69 4.66 C62.3 4.61 55.91 4.55 49.51 4.5 C43.35 4.46 37.18 4.4 31.02 4.35 C28.66 4.33 26.3 4.31 23.95 4.29 C20.66 4.27 17.36 4.24 14.07 4.21 C12.6 4.2 12.6 4.2 11.1 4.19 C9.76 4.17 9.76 4.17 8.38 4.16 C7.61 4.15 6.83 4.15 6.02 4.14 C4 4 4 4 1 3 C0.67 2.01 0.34 1.02 0 0 Z " fill="#392721" transform="translate(453,572)"/>
<path d="M0 0 C14.55 -0.05 29.1 -0.08 43.65 -0.1 C50.41 -0.11 57.17 -0.13 63.92 -0.15 C70.44 -0.17 76.95 -0.18 83.47 -0.19 C85.96 -0.19 88.45 -0.2 90.94 -0.21 C94.42 -0.23 97.9 -0.23 101.38 -0.23 C102.41 -0.23 103.45 -0.24 104.52 -0.25 C105.47 -0.25 106.41 -0.24 107.39 -0.24 C108.21 -0.24 109.03 -0.24 109.88 -0.25 C112 0 112 0 115 2 C115.19 4.62 115.19 4.62 115 7 C114.5 5.02 114.5 5.02 114 3 C75.06 3 36.12 3 -4 3 C-2.68 2.67 -1.36 2.34 0 2 C0 1.34 0 0.68 0 0 Z " fill="#3D2A25" transform="translate(579,573)"/>
<path d="M0 0 C0 0.66 0 1.32 0 2 C-0.99 2 -1.98 2 -3 2 C-3.23 3.09 -3.45 4.19 -3.69 5.31 C-5 9 -5 9 -7.06 10.94 C-11.82 12.66 -16.68 12.94 -21.42 11.02 C-24.29 9.88 -26.74 9.6 -29.81 9.38 C-30.79 9.3 -31.76 9.23 -32.77 9.15 C-33.51 9.1 -34.24 9.05 -35 9 C-30.86 3.94 -24.15 3.55 -18.06 2.5 C-14.01 1.8 -10.13 1.04 -6.18 -0.16 C-3 -1 -3 -1 0 0 Z " fill="#7A1715" transform="translate(510,226)"/>
<path d="M0 0 C0.66 0.66 1.32 1.32 2 2 C1.62 5.12 1.62 5.12 1 8 C1.66 8.33 2.32 8.66 3 9 C3.6 11.62 3.6 11.62 4.06 14.88 C4.53 18.07 4.98 20.93 6 24 C1.38 24.33 -3.24 24.66 -8 25 C-7.01 23.35 -6.02 21.7 -5 20 C-5.99 20.33 -6.98 20.66 -8 21 C-7.46 15.72 -6.23 11.74 -4 7 C-3.34 7 -2.68 7 -2 7 C-1.34 4.69 -0.68 2.38 0 0 Z " fill="#74645C" transform="translate(709,380)"/>
<path d="M0 0 C0.82 0.16 1.63 0.32 2.47 0.49 C-1.6 4.69 -5.93 8.55 -10.32 12.41 C-12.68 14.48 -12.68 14.48 -14.53 17.49 C-15.19 17.49 -15.85 17.49 -16.53 17.49 C-16.53 18.15 -16.53 18.81 -16.53 19.49 C-17.88 20.82 -17.88 20.82 -19.72 22.3 C-22.83 24.89 -25.7 27.59 -28.53 30.49 C-29.96 31.93 -31.4 33.37 -32.84 34.8 C-33.54 35.5 -34.24 36.2 -34.95 36.92 C-35.73 37.7 -35.73 37.7 -36.53 38.49 C-37.52 37.83 -38.51 37.17 -39.53 36.49 C-34.53 31.34 -29.51 26.22 -24.48 21.11 C-22.77 19.37 -21.06 17.62 -19.36 15.87 C-16.92 13.36 -14.46 10.86 -11.99 8.37 C-10.86 7.19 -10.86 7.19 -9.7 5.98 C-4.32 0.6 -4.32 0.6 0 0 Z " fill="#DE383E" transform="translate(372.52880859375,99.5078125)"/>
<path d="M0 0 C2.12 0.38 2.12 0.38 4 1 C3.34 1 2.68 1 2 1 C1.89 1.86 1.79 2.72 1.68 3.6 C0.95 7.23 -0.26 10.05 -1.88 13.38 C-3.67 17.13 -5.36 20.81 -6.69 24.75 C-7.12 25.82 -7.55 26.89 -8 28 C-8.99 28.33 -9.98 28.66 -11 29 C-10.55 23.68 -9.96 20.51 -7 16 C-6.29 14.01 -5.63 12.01 -5 10 C-4.51 8.58 -4.01 7.16 -3.5 5.75 C-3.26 5.08 -3.03 4.42 -2.78 3.73 C-2 2 -2 2 0 0 Z M-13 27 C-11.68 28.65 -10.36 30.3 -9 32 C-10.32 34.64 -11.64 37.28 -13 40 C-15 36 -15 36 -14.62 33.75 C-14.42 33.17 -14.21 32.6 -14 32 C-13.34 32 -12.68 32 -12 32 C-12.33 30.35 -12.66 28.7 -13 27 Z " fill="#372924" transform="translate(760,365)"/>
<path d="M0 0 C0 0.66 0 1.32 0 2 C-0.76 2.23 -1.53 2.45 -2.31 2.69 C-5.61 4.3 -6.38 5.76 -8 9 C-8.39 9.76 -8.78 10.53 -9.19 11.31 C-9.46 11.87 -9.72 12.43 -10 13 C-10.74 12.03 -11.49 11.06 -12.25 10.06 C-14.39 7.46 -15.64 6.6 -19 6 C-19.33 5.01 -19.66 4.02 -20 3 C-19.16 2.82 -19.16 2.82 -18.31 2.63 C-17.55 2.47 -16.79 2.3 -16 2.12 C-15.18 1.95 -14.37 1.77 -13.52 1.58 C-11.21 1.05 -8.92 0.44 -6.62 -0.19 C-3 -1 -3 -1 0 0 Z " fill="#2D1612" transform="translate(575,213)"/>
<path d="M0 0 C0 0.66 0 1.32 0 2 C0.66 2 1.32 2 2 2 C4 5 4 5 4 8 C-0.62 8.33 -5.24 8.66 -10 9 C-9.01 7.35 -8.02 5.7 -7 4 C-7.99 4.33 -8.98 4.66 -10 5 C-10 3.68 -10 2.36 -10 1 C-3.38 -1.12 -3.38 -1.12 0 0 Z " fill="#C6A099" transform="translate(711,396)"/>
<path d="M0 0 C1 -0 1 -0 2.02 -0 C3.43 -0 4.83 -0 6.23 0 C8.37 0.01 10.51 0 12.64 -0 C14.01 -0 15.38 -0 16.75 0 C17.98 0 19.22 0 20.49 0 C23.4 0.12 25.99 0.46 28.81 1.13 C28.81 1.46 28.81 1.79 28.81 2.13 C19.38 3.13 10.03 3.25 0.56 3.2 C-0.88 3.19 -2.32 3.19 -3.76 3.18 C-7.24 3.17 -10.71 3.15 -14.19 3.13 C-13.86 2.47 -13.53 1.81 -13.19 1.13 C-8.79 0.09 -4.51 0 0 0 Z " fill="#72625A" transform="translate(803.19140625,401.8671875)"/>
<path d="M0 0 C0.99 0 1.98 0 3 0 C3.29 0.56 3.58 1.11 3.88 1.69 C5.99 5.61 8.13 9.31 10.88 12.81 C14.81 17.86 17.86 23.43 21 29 C20.01 29.33 19.02 29.66 18 30 C17.63 29.36 17.26 28.72 16.88 28.06 C15.4 25.66 13.89 23.33 12.31 21 C9.69 17.09 7.17 13.13 4.69 9.12 C4.01 8.03 3.33 6.94 2.64 5.82 C1 3 1 3 0 0 Z " fill="#120C0A" transform="translate(768,175)"/>
<path d="M0 0 C1.5 1.38 1.5 1.38 3 3 C3 3.66 3 4.32 3 5 C3.66 5 4.32 5 5 5 C5.49 5.92 5.49 5.92 5.99 6.86 C6.64 8.08 6.64 8.08 7.31 9.31 C7.96 10.51 7.96 10.51 8.61 11.74 C9.86 13.98 9.86 13.98 11.48 15.42 C13.63 17.65 14.72 20.16 16.06 22.94 C16.57 23.98 17.08 25.02 17.6 26.09 C18.06 27.05 18.52 28.01 19 29 C19.66 30.33 20.33 31.67 21 33 C21.66 33 22.32 33 23 33 C23 33.99 23 34.98 23 36 C22.34 36 21.68 36 21 36 C19.79 34.26 19.79 34.26 18.4 31.79 C14.73 25.47 10.7 19.44 6.62 13.38 C5.88 12.26 5.14 11.15 4.39 10.04 C2.6 7.36 0.8 4.68 -1 2 C-0.67 1.34 -0.34 0.68 0 0 Z " fill="#171311" transform="translate(731,185)"/>
<path d="M0 0 C4 4.62 4 4.62 4 8 C4.66 8 5.32 8 6 8 C7.13 9.41 7.13 9.41 8.35 11.36 C8.79 12.06 9.23 12.77 9.68 13.49 C10.14 14.24 10.59 14.98 11.06 15.75 C11.52 16.48 11.98 17.21 12.46 17.96 C14.53 21.31 16.2 24.11 17 28 C13.74 26.91 13.34 26.46 11.5 23.75 C11.07 23.12 10.64 22.49 10.2 21.84 C8.73 19.59 7.34 17.32 6 15 C5.46 14.11 4.93 13.23 4.38 12.31 C3.54 10.9 2.73 9.47 2 8 C2.33 7.34 2.66 6.68 3 6 C2.34 6 1.68 6 1 6 C0.34 4.35 -0.32 2.7 -1 1 C-0.67 0.67 -0.34 0.34 0 0 Z " fill="#0E0908" transform="translate(425,245)"/>
<path d="M0 0 C1.34 1.66 2.67 3.33 4 5 C4.58 5.7 5.15 6.4 5.75 7.12 C7 9 7 9 7 12 C7.66 12.33 8.32 12.66 9 13 C9.33 13.66 9.66 14.32 10 15 C10.64 15.76 11.28 16.53 11.94 17.31 C13.9 19.88 14.83 22.03 16 25 C17.52 26.77 17.52 26.77 19 28 C18.34 28.66 17.68 29.32 17 30 C9.62 21.2 4.07 11.27 -1 1 C-0.67 0.67 -0.34 0.34 0 0 Z " fill="#1D1614" transform="translate(693,207)"/>
<path d="M0 0 C2.12 0.38 2.12 0.38 4 1 C3.34 1 2.68 1 2 1 C1.9 1.85 1.8 2.7 1.69 3.57 C0.93 7.36 -0.39 10.39 -2.06 13.88 C-2.61 15.03 -3.16 16.18 -3.72 17.37 C-4.14 18.24 -4.57 19.1 -5 20 C-6.88 16.24 -5.5 11.66 -4.33 7.77 C-3.23 4.69 -2.34 2.34 0 0 Z " fill="#28201C" transform="translate(760,365)"/>
<path d="M0 0 C-1.76 1.76 -4.36 1.55 -6.75 1.88 C-11.54 2.57 -16.18 3.47 -20.88 4.62 C-25.42 5.72 -29.34 6.32 -34 6 C-31.25 4.16 -29.98 3.62 -26.87 3 C-26.06 2.84 -25.25 2.67 -24.42 2.5 C-23.58 2.34 -22.74 2.17 -21.88 2 C-20.23 1.67 -18.58 1.33 -16.93 1 C-15.71 0.76 -15.71 0.76 -14.46 0.52 C-12.8 0.17 -11.13 -0.22 -9.48 -0.64 C-8.29 -0.94 -8.29 -0.94 -7.07 -1.25 C-6.36 -1.44 -5.65 -1.63 -4.91 -1.83 C-3 -2 -3 -2 0 0 Z " fill="#D22F38" transform="translate(814,164)"/>
<path d="M0 0 C2.25 0.06 2.25 0.06 5 1 C6.81 3.14 8.05 5.37 9 8 C8.75 10.44 8.75 10.44 8 12 C7.28 11.2 6.56 10.39 5.81 9.56 C2.97 6.98 1.73 6.32 -2 6 C-1.34 4.02 -0.68 2.04 0 0 Z " fill="#2B1612" transform="translate(507,228)"/>
<path d="M0 0 C2.2 6.65 -0.61 14.69 -3 21 C-3.33 21 -3.66 21 -4 21 C-5.52 14.63 -4.15 10.09 -2 4 C-1.67 3.01 -1.34 2.02 -1 1 C-0.67 0.67 -0.34 0.34 0 0 Z " fill="#D7333A" transform="translate(246,299)"/>
<path d="M0 0 C0.66 0 1.32 0 2 0 C2.45 0.97 2.91 1.94 3.38 2.94 C4.66 6.07 4.66 6.07 7 7 C11 13.35 11 13.35 11 17 C10.34 17.33 9.68 17.66 9 18 C8.01 15.03 7.02 12.06 6 9 C5.34 9 4.68 9 4 9 C4 8.34 4 7.68 4 7 C3.34 7 2.68 7 2 7 C1.01 5.02 0.02 3.04 -1 1 C-0.67 0.67 -0.34 0.34 0 0 Z " fill="#080605" transform="translate(450,286)"/>
<path d="M0 0 C4.15 3.67 7.23 8.22 10 13 C10 13.66 10 14.32 10 15 C10.66 15 11.32 15 12 15 C12.33 16.98 12.66 18.96 13 21 C12.67 20.34 12.34 19.68 12 19 C11.34 18.67 10.68 18.34 10 18 C9 16.64 8.04 15.23 7.12 13.81 C5.33 11.05 3.52 8.32 1.62 5.62 C0 3 0 3 0 0 Z " fill="#130F0D" transform="translate(754,221)"/>
<path d="M0 0 C0.99 0.66 1.98 1.32 3 2 C1.25 5.88 1.25 5.88 -1 7 C-2.05 8.62 -2.05 8.62 -3 10.5 C-4.78 13.89 -4.78 13.89 -7 15 C-7.68 13.25 -7.68 13.25 -8 11 C-6.86 8.96 -6.86 8.96 -5.19 6.94 C-4.64 6.27 -4.1 5.59 -3.54 4.9 C-3.03 4.27 -2.52 3.65 -2 3 C-1.34 2.01 -0.68 1.02 0 0 Z " fill="#CF363A" transform="translate(300,179)"/>
<path d="M0 0 C1.77 -0.05 3.54 -0.09 5.31 -0.12 C6.3 -0.15 7.28 -0.17 8.3 -0.2 C11 0 11 0 14 2 C14.19 4.62 14.19 4.62 14 7 C13.67 5.68 13.34 4.36 13 3 C8.38 3 3.76 3 -1 3 C-0.67 2.01 -0.34 1.02 0 0 Z " fill="#271410" transform="translate(680,573)"/>
<path d="M0 0 C3.42 3.14 5.89 6.63 8.31 10.56 C8.68 11.14 9.06 11.72 9.44 12.31 C10.49 14 10.49 14 12 17 C11.67 17.99 11.34 18.98 11 20 C7 14.38 7 14.38 7 11 C6.01 10.67 5.02 10.34 4 10 C2.83 8.48 2.83 8.48 1.81 6.62 C1.47 6.02 1.12 5.41 0.77 4.79 C0 3 0 3 0 0 Z " fill="#0D0A09" transform="translate(662,229)"/>
<path d="M0 0 C3 0.12 3 0.12 4 1.12 C4.04 3.46 4.04 5.79 4 8.12 C0.46 6.21 -1.79 4.5 -4 1.12 C-3 0.12 -3 0.12 0 0 Z " fill="#C92633" transform="translate(408,403.875)"/>
<path d="M0 0 C1.32 0 2.64 0 4 0 C3.32 3.12 2.26 5.85 0.94 8.75 C0.39 9.95 0.39 9.95 -0.16 11.17 C-0.58 12.08 -0.58 12.08 -1 13 C-1.66 12.67 -2.32 12.34 -3 12 C-2.01 8.04 -1.02 4.08 0 0 Z " fill="#362A25" transform="translate(770,337)"/>
<path d="M0 0 C1.49 0.99 1.49 0.99 3 2 C3 2.99 3 3.98 3 5 C3.66 5.33 4.32 5.66 5 6 C5 6.99 5 7.98 5 9 C5.66 9 6.32 9 7 9 C7.66 10.65 8.32 12.3 9 14 C6.4 13.63 5.28 13.33 3.55 11.29 C3.14 10.6 2.73 9.9 2.31 9.19 C1.9 8.5 1.48 7.81 1.05 7.11 C0.02 5.05 -0.63 3.27 -1 1 C-0.67 0.67 -0.34 0.34 0 0 Z " fill="#0F0B0A" transform="translate(717,244)"/>
<path d="M0 0 C-0.33 0.99 -0.66 1.98 -1 3 C-1.66 2.84 -2.32 2.67 -3 2.5 C-6.73 1.88 -10.22 1.94 -14 2 C-14 1.34 -14 0.68 -14 0 C-8.49 -1.71 -5.47 -2.46 0 0 Z " fill="#1D0F0D" transform="translate(598,210)"/>
<path d="M0 0 C0.66 0.33 1.32 0.66 2 1 C2 1.99 2 2.98 2 4 C2.99 4.33 3.98 4.66 5 5 C6.2 6.52 6.2 6.52 7.25 8.38 C7.78 9.28 7.78 9.28 8.33 10.21 C9 12 9 12 8 15 C6.5 13.69 6.5 13.69 5 12 C5 11.01 5 10.02 5 9 C4.34 8.67 3.68 8.34 3 8 C1.52 5.74 0.29 3.37 -1 1 C-0.67 0.67 -0.34 0.34 0 0 Z " fill="#0D0A09" transform="translate(794,213)"/>
<path d="M0 0 C-0.33 0.66 -0.66 1.32 -1 2 C-3.53 2.64 -6 3.17 -8.56 3.62 C-9.27 3.76 -9.98 3.89 -10.72 4.03 C-12.48 4.36 -14.24 4.68 -16 5 C-15.67 4.01 -15.34 3.02 -15 2 C-13.44 1.66 -11.88 1.33 -10.31 1 C-9.44 0.81 -8.57 0.63 -7.68 0.44 C-5.06 0.01 -2.64 -0.08 0 0 Z " fill="#CD2A35" transform="translate(612,204)"/>
<path d="M0 0 C0.66 0 1.32 0 2 0 C3.28 1.95 4.48 3.96 5.62 6 C6.26 7.11 6.89 8.23 7.54 9.38 C8.26 10.67 8.26 10.67 9 12 C8.01 12.33 7.02 12.66 6 13 C3.6 9.04 1.29 5.03 -1 1 C-0.67 0.67 -0.34 0.34 0 0 Z " fill="#130F0E" transform="translate(780,192)"/>
<path d="M0 0 C2.48 0.99 2.48 0.99 5 2 C5 2.99 5 3.98 5 5 C4.36 5.29 3.72 5.58 3.06 5.88 C0.85 6.83 0.85 6.83 0 9 C-0.66 9 -1.32 9 -2 9 C-1.34 6.03 -0.68 3.06 0 0 Z " fill="#837068" transform="translate(714,366)"/>
<path d="M0 0 C2.86 3.46 5.37 7.01 7.75 10.81 C8.36 11.79 8.98 12.76 9.61 13.77 C10.07 14.51 10.53 15.24 11 16 C10.34 16.33 9.68 16.66 9 17 C7.49 14.73 5.99 12.46 4.5 10.19 C4.07 9.54 3.64 8.9 3.2 8.24 C0 3.34 0 3.34 0 0 Z " fill="#090706" transform="translate(845,210)"/>
<path d="M0 0 C2.64 0 5.28 0 8 0 C7.67 0.99 7.34 1.98 7 3 C2.71 3 -1.58 3 -6 3 C-6 2.67 -6 2.34 -6 2 C-4.02 2 -2.04 2 0 2 C0 1.34 0 0.68 0 0 Z " fill="#EE4546" transform="translate(430,322)"/>
<path d="M0 0 C0.99 0.33 1.98 0.66 3 1 C3 1.66 3 2.32 3 3 C3.99 3.33 4.98 3.66 6 4 C6.72 5.65 7.38 7.31 8 9 C8.66 9.66 9.32 10.32 10 11 C9.01 11.33 8.02 11.66 7 12 C4.08 8.09 1.56 4.67 0 0 Z " fill="#0A0605" transform="translate(681,192)"/>
<path d="M0 0 C0.66 0 1.32 0 2 0 C1.37 5.05 -0.13 9.3 -2 14 C-2.33 14 -2.66 14 -3 14 C-2.59 9.03 -2.2 4.55 0 0 Z " fill="#352621" transform="translate(496,367)"/>
<path d="M0 0 C3.29 0.59 5.09 1.65 7.56 3.88 C8.14 4.39 8.72 4.9 9.32 5.43 C10.15 6.21 10.15 6.21 11 7 C11.85 7.78 11.85 7.78 12.71 8.57 C14 10 14 10 14 12 C10.6 10.54 8.44 8.65 5.88 6 C5.19 5.3 4.51 4.6 3.8 3.88 C3.21 3.26 2.61 2.64 2 2 C1.34 1.34 0.68 0.68 0 0 Z " fill="#D53039" transform="translate(906,102)"/>
<path d="M0 0 C0.33 1.32 0.66 2.64 1 4 C-2.3 5.32 -5.6 6.64 -9 8 C-8.67 6.35 -8.34 4.7 -8 3 C-7.01 2.67 -6.02 2.34 -5 2 C-3.33 1.34 -1.66 0.67 0 0 Z " fill="#D43239" transform="translate(515,18)"/>
<path d="M0 0 C0.66 0 1.32 0 2 0 C2.33 0.99 2.66 1.98 3 3 C2.34 3 1.68 3 1 3 C0.81 4.64 0.81 4.64 0.62 6.31 C0 10 0 10 -2 13 C-2.66 12.01 -3.32 11.02 -4 10 C-3.34 10 -2.68 10 -2 10 C-1.86 9.09 -1.71 8.19 -1.56 7.25 C-1.14 4.79 -0.65 2.41 0 0 Z " fill="#291F1B" transform="translate(816,326)"/>
<path d="M0 0 C-0.86 8.57 -0.86 8.57 -3 12 C-4.35 4.19 -4.35 4.19 -3 1 C-1 0 -1 0 0 0 Z " fill="#DB353C" transform="translate(258,264)"/>
<path d="M0 0 C2.5 1.69 2.5 1.69 5 4 C5.31 6.75 5.31 6.75 5 9 C4.01 8.34 3.02 7.68 2 7 C2 6.34 2 5.68 2 5 C1.34 5 0.68 5 0 5 C-0.56 3.06 -0.56 3.06 -1 1 C-0.67 0.67 -0.34 0.34 0 0 Z " fill="#000000" transform="translate(614,257)"/>
<path d="M0 0 C0.66 0.99 1.32 1.98 2 3 C1.12 5.69 1.12 5.69 0 8 C-0.66 7.34 -1.32 6.68 -2 6 C-1.34 4.02 -0.68 2.04 0 0 Z " fill="#241814" transform="translate(724,337)"/>
<path d="M0 0 C0.66 0.99 1.32 1.98 2 3 C0.68 4.65 -0.64 6.3 -2 8 C-1.33 5.33 -0.67 2.67 0 0 Z " fill="#170E0C" transform="translate(812,338)"/>
<path d="M0 0 C0.33 1.32 0.66 2.64 1 4 C0.01 4.5 0.01 4.5 -1 5 C-0.67 3.35 -0.34 1.7 0 0 Z " fill="#695951" transform="translate(718,358)"/>
<path d="M0 0 C0 3 0 3 0 3 Z " fill="#DB353C" transform="translate(291,192)"/>
<path d="M0 0 C0.99 0.5 0.99 0.5 2 1 C1.01 1.5 1.01 1.5 0 2 C0 1.34 0 0.68 0 0 Z " fill="#352C26" transform="translate(833,396)"/>
<path d="M0 0 C0.66 0.66 1.32 1.32 2 2 C1.34 2 0.68 2 0 2 C0 1.34 0 0.68 0 0 Z " fill="#7A635C" transform="translate(710,377)"/>
<path d="" fill="#5E4F47" transform="translate(0,0)"/>
<path d="M0 0 C0.66 0.66 1.32 1.32 2 2 C1.34 2 0.68 2 0 2 C0 1.34 0 0.68 0 0 Z " fill="#5E4F47" transform="translate(711,375)"/>
<path d="" fill="#7C6B63" transform="translate(0,0)"/>
<path d="" fill="#000000" transform="translate(0,0)"/>
<path d="" fill="#A58981" transform="translate(0,0)"/>
<path d="" fill="#7C6B63" transform="translate(0,0)"/>
<path d="" fill="#7C6B63" transform="translate(0,0)"/>
<path d="" fill="#66564E" transform="translate(0,0)"/>
<path d="" fill="#000000" transform="translate(0,0)"/>
<path d="" fill="#000000" transform="translate(0,0)"/>
<path d="M0 0 C2 1 2 1 2 1 Z " fill="#EE4546" transform="translate(462,39)"/>
<path d="M0 0 C2 1 2 1 2 1 Z " fill="#C82532" transform="translate(487,28)"/>
<path d="" fill="#7E1716" transform="translate(0,0)"/>
<path d="" fill="#000000" transform="translate(0,0)"/>
<path d="" fill="#50423A" transform="translate(0,0)"/>
<path d="" fill="#7C6B63" transform="translate(0,0)"/>
<path d="" fill="#2D1713" transform="translate(0,0)"/>
<path d="" fill="#7C6B63" transform="translate(0,0)"/>
<path d="" fill="#50423A" transform="translate(0,0)"/>
<path d="" fill="#000000" transform="translate(0,0)"/>
<path d="" fill="#CEA7A0" transform="translate(0,0)"/>
<path d="" fill="#2D1713" transform="translate(0,0)"/>
<path d="" fill="#000000" transform="translate(0,0)"/>
<path d="" fill="#50423A" transform="translate(0,0)"/>
<path d="" fill="#50423A" transform="translate(0,0)"/>
<path d="" fill="#000000" transform="translate(0,0)"/>
<path d="" fill="#50423A" transform="translate(0,0)"/>
<path d="" fill="#2D1713" transform="translate(0,0)"/>
<path d="" fill="#000000" transform="translate(0,0)"/>
<path d="" fill="#CEA7A0" transform="translate(0,0)"/>
<path d="" fill="#FDFDFD" transform="translate(0,0)"/>
<path d="" fill="#000000" transform="translate(0,0)"/>
<path d="" fill="#000000" transform="translate(0,0)"/>
<path d="" fill="#2D1713" transform="translate(0,0)"/>
<path d="" fill="#000000" transform="translate(0,0)"/>
<path d="" fill="#7C6B63" transform="translate(0,0)"/>
<path d="" fill="#CEA7A0" transform="translate(0,0)"/>
<path d="" fill="#7C6B63" transform="translate(0,0)"/>
<path d="" fill="#C82532" transform="translate(0,0)"/>
<path d="" fill="#CEA7A0" transform="translate(0,0)"/>
<path d="" fill="#CEA7A0" transform="translate(0,0)"/>
<path d="" fill="#CEA7A0" transform="translate(0,0)"/>
<path d="" fill="#C82532" transform="translate(0,0)"/>
<path d="" fill="#7E1716" transform="translate(0,0)"/>
<path d="" fill="#C82532" transform="translate(0,0)"/>
</svg>
